<svg
                            xmlns="http://www.w3.org/2000/svg"
                            width="16"
                            height="16"
                            viewBox="0 0 16 16"
                          >
                            <path d="M16 8C16 8.68267 15.1613 9.24533 14.9933 9.87467C14.82 10.5253 15.2587 11.432 14.9293 12.0013C14.5947 12.58 13.588 12.6493 13.1187 13.1187C12.6493 13.588 12.58 14.5947 12.0013 14.9293C11.432 15.2587 10.5253 14.82 9.87467 14.9933C9.24533 15.1613 8.68267 16 8 16C7.31733 16 6.75467 15.1613 6.12533 14.9933C5.47467 14.82 4.568 15.2587 3.99867 14.9293C3.42 14.5947 3.35067 13.588 2.88133 13.1187C2.412 12.6493 1.40533 12.58 1.07067 12.0013C0.741333 11.432 1.18 10.5253 1.00667 9.87467C0.838667 9.24533 0 8.68267 0 8C0 7.31733 0.838667 6.75467 1.00667 6.12533C1.18 5.47467 0.741333 4.568 1.07067 3.99867C1.40533 3.42 2.412 3.35067 2.88133 2.88133C3.35067 2.412 3.42 1.40533 3.99867 1.07067C4.568 0.741333 5.47467 1.18 6.12533 1.00667C6.75467 0.838667 7.31733 0 8 0C8.68267 0 9.24533 0.838667 9.87467 1.00667C10.5253 1.18 11.432 0.741333 12.0013 1.07067C12.58 1.40533 12.6493 2.412 13.1187 2.88133C13.588 3.35067 14.5947 3.42 14.9293 3.99867C15.2587 4.568 14.82 5.47467 14.9933 6.12533C15.1613 6.75467 16 7.31733 16 8Z" />
                            <path d="M8.99 8.00021L10.8462 6.14402C11.0513 5.93893 11.0513 5.60642 10.8462 5.40165L10.5987 5.15421C10.3936 4.94907 10.0611 4.94907 9.8563 5.15421L8.0002 7.01034L6.14402 5.15382C5.93893 4.94873 5.60642 4.94873 5.40165 5.15382L5.15382 5.40128C4.94873 5.60644 4.94873 5.93894 5.15382 6.1437L7.01031 8.0002L5.15419 9.85634C4.94906 10.0615 4.94906 10.394 5.15419 10.5988L5.40165 10.8462C5.60673 11.0513 5.93924 11.0513 6.14402 10.8462L8.00018 8.99002L9.85633 10.8462C10.0615 11.0513 10.394 11.0513 10.5987 10.8462L10.8462 10.5987C11.0513 10.3936 11.0513 10.0611 10.8462 9.85631L8.99 8.00021Z" />
                          </svg>