<svg
                          xmlns="http://www.w3.org/2000/svg"
                          width="36"
                          height="36"
                          viewBox="0 0 36 36"
                        >
                          <g>
                            <path d="M28.0406 5.34918H24.9389V3.96155C24.9389 3.5126 24.4491 3.30855 24.0002 3.30855H21.5922C21.0209 1.67602 19.5924 0.859759 17.9599 0.859759C16.3453 0.799061 14.8767 1.78906 14.3275 3.30855H11.9603C11.5114 3.30855 11.0624 3.5126 11.0624 3.96155V5.34918H7.96056C6.12242 5.36879 4.61863 6.81883 4.53223 8.65502V32.0409C4.53223 33.8367 6.16476 35.1427 7.96056 35.1427H28.0406C29.8364 35.1427 31.469 33.8367 31.469 32.0409V8.6551C31.3826 6.81883 29.8788 5.36879 28.0406 5.34918ZM12.6949 4.94108H14.9396C15.1305 4.91779 15.3089 4.83385 15.4485 4.7016C15.5881 4.56936 15.6815 4.39579 15.7151 4.20645C15.9568 3.15388 16.8803 2.39831 17.9599 2.36988C19.0295 2.4023 19.939 3.16021 20.1638 4.20645C20.1993 4.40197 20.2988 4.58016 20.4465 4.7131C20.5942 4.84605 20.7818 4.92623 20.98 4.94108H23.3064V8.20615H12.6949V4.94108ZM29.8364 32.041C29.8364 32.9389 28.9385 33.5103 28.0406 33.5103H7.96056C7.06266 33.5103 6.16476 32.9389 6.16476 32.041V8.6551C6.24803 7.72048 7.02235 6.99889 7.96056 6.98179H11.0623V9.06327C11.1055 9.52057 11.5015 9.86266 11.9602 9.83875H24.0001C24.2254 9.85108 24.447 9.77814 24.621 9.63444C24.7949 9.49074 24.9084 9.28682 24.9388 9.06327V6.98171H28.0406C28.9787 6.99889 29.7531 7.7204 29.8364 8.65502V32.041H29.8364Z" />
                            <path d="M14.8578 19.1033C14.5517 18.7806 14.0434 18.7624 13.715 19.0625L11.103 21.5521L10.001 20.4093C9.69487 20.0865 9.18662 20.0684 8.85821 20.3685C8.70601 20.5279 8.62109 20.7399 8.62109 20.9603C8.62109 21.1807 8.70601 21.3926 8.85821 21.5521L10.5315 23.2662C10.6031 23.3463 10.6913 23.4098 10.79 23.4521C10.8887 23.4944 10.9955 23.5146 11.1029 23.5111C11.3182 23.5081 11.5236 23.42 11.6742 23.2662L14.8577 20.2461C15.1733 19.9566 15.1944 19.466 14.9048 19.1504C14.8899 19.134 14.8742 19.1182 14.8578 19.1033ZM26.5712 20.8582H17.1842C16.7334 20.8582 16.3679 21.2236 16.3679 21.6745C16.3679 22.1253 16.7334 22.4907 17.1842 22.4907H26.5712C27.022 22.4907 27.3875 22.1253 27.3875 21.6745C27.3875 21.2236 27.022 20.8582 26.5712 20.8582ZM14.8578 12.5731C14.5517 12.2504 14.0434 12.2322 13.715 12.5324L11.103 15.0219L10.001 13.8791C9.69487 13.5564 9.18662 13.5382 8.85821 13.8384C8.70601 13.9978 8.62109 14.2097 8.62109 14.4301C8.62109 14.6506 8.70601 14.8625 8.85821 15.0219L10.5315 16.7361C10.6031 16.8162 10.6913 16.8797 10.79 16.922C10.8887 16.9643 10.9955 16.9844 11.1029 16.981C11.3182 16.978 11.5236 16.8899 11.6742 16.7361L14.8577 13.7159C15.1733 13.4264 15.1944 12.9358 14.9048 12.6203C14.8899 12.6038 14.8742 12.5881 14.8578 12.5731ZM26.5712 14.3281H17.1842C16.7334 14.3281 16.3679 14.6935 16.3679 15.1444C16.3679 15.5952 16.7334 15.9606 17.1842 15.9606H26.5712C27.022 15.9606 27.3875 15.5952 27.3875 15.1444C27.3875 14.6935 27.022 14.3281 26.5712 14.3281ZM14.8578 25.6333C14.5517 25.3106 14.0434 25.2925 13.715 25.5925L11.103 28.0821L10.001 26.9393C9.69487 26.6166 9.18662 26.5985 8.85821 26.8985C8.70601 27.058 8.62109 27.2699 8.62109 27.4903C8.62109 27.7107 8.70601 27.9227 8.85821 28.0821L10.5315 29.7963C10.6031 29.8764 10.6913 29.9398 10.79 29.9821C10.8887 30.0245 10.9955 30.0446 11.1029 30.0412C11.3182 30.0381 11.5236 29.9501 11.6742 29.7963L14.8577 26.7761C15.1733 26.4866 15.1944 25.996 14.9048 25.6805C14.8899 25.6641 14.8742 25.6483 14.8578 25.6333ZM26.5712 27.3883H17.1842C16.7334 27.3883 16.3679 27.7538 16.3679 28.2046C16.3679 28.6554 16.7334 29.0209 17.1842 29.0209H26.5712C27.022 29.0209 27.3875 28.6554 27.3875 28.2046C27.3875 27.7538 27.022 27.3883 26.5712 27.3883Z" />
                          </g>
                        </svg>