<svg
                          xmlns="http://www.w3.org/2000/svg"
                          width="36"
                          height="36"
                          viewBox="0 0 36 36"
                        >
                          <g>
                            <path d="M19.9293 4.78568L23.5007 2.14282C23.7864 1.92853 23.8578 1.42853 23.6436 1.14282C23.4293 0.857104 22.9293 0.785676 22.6436 0.999961L17.5721 4.78568C17.3578 5.07139 17.1436 5.3571 17.4293 5.78568L21.215 10.8571C21.4293 11.1428 21.9293 11.2142 22.215 11C22.5007 10.7857 22.5721 10.2857 22.3578 9.99996L19.5007 6.14282C25.3578 6.8571 29.9293 11.9285 29.9293 18C29.9293 21.2142 28.715 24.2142 26.4293 26.4285C26.1436 26.7142 26.1436 27.1428 26.4293 27.4285C26.715 27.7142 27.1436 27.7142 27.4293 27.4285C29.9293 24.9285 31.3578 21.5714 31.3578 18C31.3578 11.2857 26.4293 5.71425 19.9293 4.78568ZM18.5721 30.2142L14.7864 25.1428C14.5721 24.8571 14.0721 24.7857 13.7864 25C13.5007 25.2142 13.4293 25.7142 13.6436 26L16.5007 29.8571C10.6436 29.1428 6.07213 24.0714 6.07213 18C6.07213 14.7857 7.28641 11.7857 9.57213 9.57139C9.85784 9.28568 9.85784 8.8571 9.57213 8.57139C9.28641 8.28568 8.85784 8.28568 8.57213 8.57139C6.0007 11.0714 4.64355 14.4285 4.64355 18C4.64355 24.7142 9.64355 30.2857 16.0721 31.2142L12.5007 33.8571C12.215 34.0714 12.1436 34.5714 12.3578 34.8571C12.5007 35.0714 12.715 35.1428 12.9293 35.1428C13.0721 35.1428 13.215 35.0714 13.3578 35L18.4293 31.2142C18.715 31 18.7864 30.5 18.5721 30.2142Z" />
                          </g>
                        </svg>