    <svg
                    xmlns="http://www.w3.org/2000/svg"
                    width="60"
                    height="60"
                    viewBox="0 0 60 60"
                  >
                    <path
                      d="M30.0625 24.5625C35.4375 24.5625 39.8125 20.1875 39.8125 14.8125C39.8125 9.43751 35.4375 5 30.0625 5C24.6875 5 20.3125 9.37501 20.3125 14.75C20.3125 20.125 24.6875 24.5625 30.0625 24.5625ZM30.0625 6.25C34.75 6.25 38.5625 10.0625 38.5625 14.75C38.5625 19.4375 34.75 23.25 30.0625 23.25C25.375 23.25 21.5625 19.4375 21.5625 14.75C21.5625 10.0625 25.375 6.25 30.0625 6.25Z"
                    />
                    <path
                      d="M19.125 48.375H21.625V54.375C21.625 54.75 21.875 55 22.25 55H37.875C38.25 55 38.5 54.75 38.5 54.375V48.375H41C43.8125 48.375 46.5 47.25 48.5 45.25C50.5001 43.25 51.6251 40.5625 51.6251 37.75C51.6251 31.875 46.875 27.125 41 27.125H19.125C16.3125 27.125 13.625 28.25 11.625 30.25C9.625 32.25 8.5 34.9375 8.5 37.75C8.5625 43.625 13.3125 48.375 19.125 48.375ZM37.25 47.6875V53.75H22.875V47.75V42.0625H26H34.1875H37.3125V47.6875H37.25ZM26.625 40.75V37.0625C26.625 35.125 28.1875 33.625 30.0625 33.625C31.9375 33.625 33.5 35.1875 33.5 37.0625V40.75H26.625ZM12.5 31.125C14.25 29.375 16.625 28.375 19.125 28.375H40.9375C46.125 28.375 50.3126 32.5625 50.3126 37.75C50.3126 40.25 49.3125 42.625 47.5625 44.375C45.8125 46.125 43.4375 47.125 40.9375 47.125H38.4375V41.4375C38.4375 41.0625 38.1875 40.8125 37.8125 40.8125H34.6875V37.125C34.6875 34.5 32.5625 32.4375 30 32.4375C27.4375 32.4375 25.3125 34.5625 25.3125 37.125V40.8125H22.1875C21.8125 40.8125 21.5625 41.0625 21.5625 41.4375V47.125H19.0625C13.875 47.125 9.6875 42.9375 9.6875 37.75C9.8125 35.25 10.75 32.875 12.5 31.125Z"
                    />
                    <path
                      d="M30.0625 45.375C29.6875 45.375 29.4375 45.625 29.4375 46V49.8125C29.4375 50.1875 29.6875 50.4375 30.0625 50.4375C30.4375 50.4375 30.6875 50.1875 30.6875 49.8125V46C30.6875 45.625 30.4375 45.375 30.0625 45.375Z"
                    />
                  </svg>