 <svg
                    xmlns="http://www.w3.org/2000/svg"
                    width="60"
                    height="60"
                    viewBox="0 0 60 60"
                  >
                    <path
                      d="M18.5947 14.4411C21.0436 12.641 23.9287 11.4015 27.0623 10.9214V5C22.3116 5.5522 17.9662 7.42699 14.4004 10.2467L18.5947 14.4411Z"
                    />
                    <path
                      d="M10.9214 27.0628C11.4023 23.9292 12.641 21.044 14.4411 18.5952L10.2467 14.4009C7.42699 17.9675 5.5522 22.3121 5 27.0628H10.9214Z"
                    />
                    <path
                      d="M49.6673 15.674C51.9475 18.7983 53.4455 22.4119 54.0388 26.2236H49.7874C49.2738 23.5398 48.2004 20.9601 46.6554 18.6875L49.6673 15.674ZM49.7529 14.4009L45.5586 18.5952C47.3595 21.044 48.5982 23.9301 49.0782 27.0637H54.9997C54.4475 22.3121 52.5727 17.9667 49.7529 14.4009Z"
                    />
                    <path
                      d="M33.7767 5.96089C37.5884 6.55589 41.202 8.05387 44.3255 10.3332L41.3111 13.3468C39.0394 11.7993 36.4605 10.7267 33.7759 10.214L33.7767 5.96089ZM32.9375 5V10.9214C36.0711 11.4023 38.9571 12.641 41.4059 14.4411L45.6003 10.2467C42.0337 7.42699 37.6882 5.5522 32.9375 5Z"
                    />
                    <path
                      d="M54.0388 33.7762C53.4455 37.5879 51.9475 41.2015 49.6673 44.325L46.6529 41.3106C48.2004 39.0389 49.2721 36.46 49.7857 33.7754L54.0388 33.7762ZM54.9997 32.937H49.0782C48.5982 36.0706 47.3587 38.9566 45.5586 41.4054L49.7529 45.5998C52.5727 42.0332 54.4475 37.6878 54.9997 32.937Z"
                    />
                    <path
                      d="M41.3119 46.6534L44.3264 49.6678C41.202 51.948 37.5892 53.4459 33.7775 54.0393V49.7878C36.4605 49.2726 39.0394 48.2009 41.3119 46.6534ZM41.4059 45.5591C38.9571 47.36 36.0719 48.5987 32.9375 49.0787V55.0002C37.6882 54.448 42.0337 52.5732 45.6003 49.7534L41.4059 45.5591Z"
                    />
                    <path
                      d="M10.214 33.7762C10.7276 36.46 11.8001 39.0389 13.3468 41.3115L10.3332 44.3259C8.05303 41.2015 6.55589 37.5887 5.96089 33.7771L10.214 33.7762ZM10.9214 32.937H5C5.5522 37.6878 7.42699 42.0332 10.2467 45.5998L14.4411 41.4054C12.641 38.9566 11.4015 36.0706 10.9214 32.937Z"
                    />
                    <path
                      d="M18.6879 46.6534C20.9605 48.2009 23.5402 49.2726 26.224 49.7862V54.0384C22.4123 53.4434 18.7987 51.9454 15.6743 49.667L18.6879 46.6534ZM18.5947 45.5591L14.4004 49.7534C17.967 52.5732 22.3116 54.448 27.0623 55.0002V49.0787C23.9296 48.5987 21.0444 47.36 18.5947 45.5591Z"
                    />
                  </svg>