 <svg
                    xmlns="http://www.w3.org/2000/svg"
                    width="60"
                    height="60"
                    viewBox="0 0 60 60"
                  >
                    <path
                      fill-rule="evenodd"
                      clip-rule="evenodd"
                      d="M29.4199 7.92451V4.91992H30.4199V7.92451C30.4199 8.02364 30.4399 8.10226 30.462 8.15394C30.5036 8.1397 30.553 8.11851 30.6069 8.09003C30.7316 8.02418 30.8515 7.93489 30.9344 7.84707L30.9357 7.84834C30.9344 7.84705 30.9344 7.84709 30.9344 7.84707L30.9354 7.84605L30.9367 7.84468L30.9397 7.84153L30.9473 7.83375C30.9531 7.82792 30.9604 7.82082 30.969 7.81264C30.9862 7.79629 31.0092 7.77548 31.0378 7.75176C31.0946 7.70455 31.1751 7.64451 31.2775 7.58512C31.4821 7.46657 31.7846 7.34518 32.1638 7.34518C33.4529 7.34518 34.3169 8.61003 34.3169 9.91992C34.3169 11.2299 33.4524 12.4947 32.1638 12.4947C31.7844 12.4947 31.482 12.3733 31.2773 12.2547C31.1748 12.1953 31.0944 12.1352 31.0376 12.088C31.009 12.0642 30.986 12.0434 30.9688 12.027C30.9602 12.0188 30.9529 12.0117 30.9471 12.0059L30.9395 11.9981L30.9365 11.9949L30.9351 11.9936L30.9344 11.9928C30.8515 11.905 30.7316 11.8157 30.6069 11.7498C30.553 11.7213 30.5036 11.7001 30.462 11.6859C30.4399 11.7376 30.4199 11.8162 30.4199 11.9153V14.9195H29.4199V11.9153C29.4199 11.631 29.4905 11.3499 29.6296 11.1238C29.763 10.907 30.0144 10.6655 30.381 10.6655C30.6263 10.6655 30.8778 10.762 31.0739 10.8656C31.2797 10.9743 31.4895 11.1253 31.6572 11.3017C31.6572 11.3017 31.6572 11.3017 31.6572 11.3017C31.6598 11.3042 31.6665 11.3104 31.6769 11.319C31.6979 11.3365 31.7325 11.3627 31.7788 11.3895C31.8719 11.4435 32.0024 11.4947 32.1638 11.4947C32.7003 11.4947 33.3169 10.9013 33.3169 9.91992C33.3169 8.93842 32.7006 8.34518 32.1638 8.34518C32.0026 8.34518 31.8721 8.39635 31.7789 8.45036C31.7325 8.47725 31.6978 8.50349 31.6768 8.52098C31.6664 8.52962 31.6597 8.53578 31.657 8.5383C31.6557 8.53955 31.6554 8.53987 31.6562 8.53909L31.6582 8.53708L31.6598 8.53542L31.6607 8.53442L31.6615 8.53359C31.6615 8.53357 31.6615 8.53355 31.6605 8.53257C31.6605 8.53256 31.6605 8.53257 31.6605 8.53257C31.6544 8.52657 31.6104 8.48485 31.298 8.1903L31.6615 8.53359C31.4931 8.71196 31.2815 8.86463 31.0739 8.97426C30.8778 9.07784 30.6263 9.17435 30.381 9.17435C30.0144 9.17435 29.763 8.93286 29.6296 8.71606C29.4905 8.48999 29.4199 8.20888 29.4199 7.92451Z"
                    />
                    <path
                      fill-rule="evenodd"
                      clip-rule="evenodd"
                      d="M29.92 15.4199C23.4772 15.4199 18.0176 19.6238 16.1293 25.4388L15.1782 25.1299C17.1962 18.9153 23.0309 14.4199 29.92 14.4199V15.4199Z"
                    />
                    <path
                      fill-rule="evenodd"
                      clip-rule="evenodd"
                      d="M5.66357 22.0384C8.98356 11.8139 18.5873 4.41992 29.9201 4.41992V5.41992C19.0333 5.41992 9.80485 12.5226 6.61469 22.3472L5.66357 22.0384Z"
                    />
                    <path
                      fill-rule="evenodd"
                      clip-rule="evenodd"
                      d="M54.1763 22.0386C54.9827 24.5216 55.4197 27.17 55.4197 29.9202C55.4197 38.4016 51.2771 45.915 44.9083 50.5503L44.3198 49.7418C50.4413 45.2865 54.4197 38.0681 54.4197 29.9202C54.4197 27.2765 53.9997 24.7323 53.2252 22.3475L54.1763 22.0386Z"
                    />
                    <path
                      fill-rule="evenodd"
                      clip-rule="evenodd"
                      d="M44.4201 29.92C44.4201 28.3556 44.1694 26.8501 43.7108 25.4389L44.6618 25.1299C45.1521 26.6384 45.4201 28.2481 45.4201 29.92C45.4201 35.076 42.8998 39.6403 39.03 42.4577L38.4414 41.6493C42.0644 39.0116 44.4201 34.7421 44.4201 29.92Z"
                    />
                    <path
                      fill-rule="evenodd"
                      clip-rule="evenodd"
                      d="M43.7106 25.4388C41.8224 19.6238 36.3631 15.4199 29.9199 15.4199V14.4199C36.8095 14.4199 42.6438 18.9153 44.6617 25.1299L43.7106 25.4388Z"
                    />
                    <path
                      fill-rule="evenodd"
                      clip-rule="evenodd"
                      d="M29.9199 4.41992C41.2528 4.41992 50.8565 11.8135 54.1765 22.0388L53.2254 22.3476C50.0352 12.5222 40.8068 5.41992 29.9199 5.41992V4.41992Z"
                    />
                    <path
                      fill-rule="evenodd"
                      clip-rule="evenodd"
                      d="M21.3984 41.6489C23.7916 43.3904 26.7338 44.4201 29.9199 44.4201C33.1057 44.4201 36.0486 43.3907 38.4413 41.6494L39.0298 42.4579C36.4724 44.3191 33.3248 45.4201 29.9199 45.4201C26.5145 45.4201 23.3678 44.3187 20.8101 42.4575L21.3984 41.6489Z"
                    />
                    <path
                      fill-rule="evenodd"
                      clip-rule="evenodd"
                      d="M29.9201 55.42C24.3187 55.42 19.1386 53.612 14.9312 50.5497L15.5196 49.7412C19.562 52.6833 24.5373 54.42 29.9201 54.42C35.3033 54.42 40.2783 52.6833 44.3203 49.7416L44.9087 50.5501C40.7016 53.612 35.522 55.42 29.9201 55.42Z"
                    />
                    <path
                      fill-rule="evenodd"
                      clip-rule="evenodd"
                      d="M16.1292 25.4386C15.671 26.8504 15.4199 28.3556 15.4199 29.9198C15.4199 34.742 17.7756 39.0114 21.3985 41.6487L20.81 42.4572C16.9402 39.6402 14.4199 35.0759 14.4199 29.9198C14.4199 28.2479 14.6884 26.6386 15.1781 25.1299L16.1292 25.4386Z"
                    />
                    <path
                      fill-rule="evenodd"
                      clip-rule="evenodd"
                      d="M4.41992 29.9202C4.41992 27.17 4.85691 24.5212 5.66337 22.0386L6.61445 22.3475C5.8399 24.732 5.41992 27.2765 5.41992 29.9202C5.41992 38.0681 9.3983 45.2865 15.5194 49.7414L14.9309 50.55C8.56251 45.915 4.41992 38.4016 4.41992 29.9202Z"
                    />
                    <path
                      fill-rule="evenodd"
                      clip-rule="evenodd"
                      d="M10.0902 21.1174C10.2562 20.6068 11.0105 20.2041 11.9443 20.5073L10.0902 21.1174ZM11.9443 20.5073C12.8773 20.8107 13.2515 21.5795 13.0865 22.0909C13.0364 22.2441 12.9473 22.3524 12.8671 22.4244C12.8271 22.4602 12.7913 22.4852 12.7681 22.4998C12.7567 22.507 12.7488 22.5115 12.7456 22.5132C12.5258 22.6182 12.3173 22.7713 12.1506 22.9333C11.9915 23.0879 11.8223 23.2971 11.7464 23.5297C11.6326 23.8787 11.7849 24.1926 11.9499 24.3864C12.122 24.5884 12.3675 24.7423 12.6377 24.8303L15.4955 25.759L15.8046 24.8079L12.9472 23.8794C12.9471 23.8793 12.9472 23.8794 12.9472 23.8794C12.853 23.8487 12.7843 23.8055 12.7419 23.7686C12.7684 23.7334 12.8037 23.693 12.8474 23.6505C12.9486 23.5522 13.0705 23.4658 13.1795 23.4142L12.9656 22.9623C13.1795 23.4142 13.1793 23.4143 13.1795 23.4142L13.181 23.4135L13.1827 23.4127L13.1866 23.4108L13.1964 23.4059C13.2037 23.4022 13.2127 23.3975 13.2232 23.3918C13.244 23.3805 13.2709 23.365 13.3023 23.3452C13.3647 23.3058 13.4467 23.2478 13.5348 23.1687C13.7108 23.0109 13.9198 22.7609 14.0374 22.4004L14.0377 22.3994C14.4344 21.1736 13.4997 19.9615 12.2536 19.5563C11.0073 19.1516 9.53774 19.5824 9.13917 20.8082C9.02194 21.1689 9.04379 21.4941 9.09325 21.7254C9.11803 21.8412 9.15025 21.9363 9.17757 22.0049C9.19129 22.0394 9.20397 22.0677 9.21419 22.0892C9.21931 22.0999 9.22383 22.109 9.22758 22.1163L9.23262 22.126L9.23467 22.1298L9.23558 22.1315L9.2362 22.1326C9.2363 22.1328 9.2364 22.133 9.67507 21.8931L9.2362 22.1326C9.29396 22.2382 9.34201 22.3802 9.36608 22.5193C9.3765 22.5794 9.38138 22.633 9.38203 22.677C9.32619 22.6819 9.24543 22.6765 9.15125 22.6459L6.29344 21.7172L5.98438 22.6682L8.84177 23.5968C8.8417 23.5968 8.84184 23.5968 8.84177 23.5968C9.11205 23.6847 9.40135 23.7047 9.65938 23.6424C9.90698 23.5826 10.2142 23.418 10.3274 23.0692C10.4033 22.8361 10.3892 22.567 10.3514 22.3487C10.3117 22.1195 10.233 21.8731 10.117 21.6591C10.1154 21.6558 10.1116 21.6476 10.1067 21.6352C10.0966 21.6097 10.0824 21.5687 10.0711 21.5162C10.0486 21.4109 10.0403 21.2709 10.0902 21.1174"
                    />
                    <path
                      fill-rule="evenodd"
                      clip-rule="evenodd"
                      d="M14.9655 45.9584C14.5381 45.6335 14.4063 44.7887 15 44.0068L14.9655 45.9584ZM15 44.0068C15.5938 43.2257 16.4429 43.1256 16.8715 43.4499C16.9996 43.5476 17.0725 43.6673 17.1141 43.7668C17.1348 43.8164 17.1465 43.8584 17.1527 43.8851C17.1558 43.8982 17.1574 43.9072 17.158 43.9108C17.1847 44.1529 17.2606 44.4001 17.3587 44.611C17.4522 44.8121 17.5941 45.0408 17.7887 45.189C18.0808 45.4114 18.4273 45.371 18.6646 45.279C18.912 45.1831 19.1382 45.0019 19.3102 44.7757L21.1283 42.3832L20.3321 41.7782L18.5143 44.1704C18.5142 44.1704 18.5143 44.1703 18.5143 44.1704C18.4543 44.2491 18.3909 44.2998 18.3421 44.3277C18.3175 44.2911 18.2911 44.2444 18.2654 44.1892C18.2059 44.0613 18.1644 43.9177 18.1516 43.7978L17.6544 43.851C18.1516 43.7978 18.1516 43.7981 18.1516 43.7978L18.1514 43.7961L18.1512 43.7943L18.1507 43.7899L18.1493 43.7791C18.1482 43.771 18.1468 43.761 18.1448 43.7492C18.141 43.7258 18.1353 43.6953 18.1269 43.6592C18.1102 43.5872 18.0825 43.4907 18.0368 43.3814C17.9457 43.1633 17.7785 42.8836 17.4769 42.6539L17.476 42.6533C16.4492 41.875 14.9969 42.3584 14.204 43.4016C13.4114 44.445 13.3342 45.9745 14.3604 46.7546C14.6624 46.984 14.9766 47.0705 15.2113 47.0999C15.3288 47.1147 15.4292 47.1156 15.503 47.1124C15.5401 47.1108 15.571 47.1081 15.5946 47.1056C15.6064 47.1043 15.6165 47.103 15.6246 47.1019L15.6354 47.1003L15.6397 47.0996L15.6416 47.0993L15.6429 47.0991C15.6431 47.0991 15.6433 47.099 15.5612 46.6058L15.6429 47.0991C15.7616 47.0793 15.9115 47.0807 16.0507 47.1038C16.111 47.1138 16.1631 47.1268 16.2049 47.1407C16.1912 47.195 16.1595 47.2695 16.0995 47.3483L14.2815 49.7409L15.0777 50.3459L16.8955 47.9537C16.8954 47.9538 16.8955 47.9536 16.8955 47.9537C17.0675 47.7275 17.1817 47.4609 17.2078 47.1967C17.2329 46.9432 17.1787 46.5989 16.8866 46.3772C16.6915 46.2288 16.4327 46.1534 16.2141 46.1172C15.9847 46.0792 15.7261 46.0724 15.4859 46.1115C15.4822 46.1119 15.4732 46.1127 15.4598 46.1133C15.4325 46.1145 15.389 46.1144 15.3358 46.1077C15.229 46.0943 15.094 46.056 14.9655 45.9584"
                    />
                    <path
                      fill-rule="evenodd"
                      clip-rule="evenodd"
                      d="M51.3513 25.1683C51.517 25.6789 51.1436 26.4481 50.2099 26.7517L51.3513 25.1683ZM50.2099 26.7517C49.2767 27.0547 48.5221 26.6527 48.355 26.1419C48.3055 25.9886 48.3139 25.8486 48.3365 25.7432C48.3478 25.6907 48.362 25.6495 48.3722 25.624C48.3772 25.6115 48.381 25.6032 48.3826 25.5999C48.4986 25.3857 48.5773 25.1394 48.617 24.9103C48.6548 24.6917 48.6687 24.423 48.5934 24.1902C48.4803 23.841 48.1726 23.6766 47.9252 23.6168C47.6673 23.5545 47.3782 23.5743 47.1079 23.662L44.25 24.5905L44.559 25.5415L47.4164 24.6132C47.4165 24.6131 47.4164 24.6132 47.4164 24.6132C47.5106 24.5827 47.5916 24.5772 47.6476 24.5822C47.6469 24.6262 47.642 24.6797 47.6316 24.7397C47.6076 24.8787 47.5598 25.0203 47.5019 25.126L47.9406 25.3659C47.5019 25.126 47.502 25.1259 47.5019 25.126L47.5011 25.1275L47.5002 25.1292L47.4982 25.133L47.4931 25.1427C47.4894 25.15 47.4849 25.1591 47.4798 25.1698C47.4695 25.1913 47.4569 25.2196 47.4431 25.254C47.4158 25.3227 47.3836 25.4177 47.3587 25.5335C47.3092 25.7647 47.287 26.0898 47.4038 26.4505L47.4041 26.4515C47.8038 27.6764 49.2724 28.1075 50.5187 27.7029C51.7648 27.2977 52.7005 26.0854 52.3024 24.8594C52.1852 24.4987 51.9763 24.2484 51.8004 24.0904C51.7123 24.0113 51.6303 23.9533 51.5679 23.9138C51.5365 23.894 51.5096 23.8785 51.4887 23.8672C51.4783 23.8615 51.4693 23.8568 51.4619 23.8531L51.4522 23.8482L51.4482 23.8463L51.4465 23.8455L51.4454 23.845C51.4452 23.8449 51.445 23.8448 51.2311 24.2967L51.4454 23.845C51.3366 23.7935 51.2142 23.7069 51.113 23.6085C51.0692 23.566 51.0338 23.5255 51.0074 23.4903C51.0497 23.4535 51.1182 23.4104 51.2124 23.3798L54.0703 22.4513L53.7613 21.5002L50.9038 22.4286C50.9039 22.4286 50.9038 22.4286 50.9038 22.4286C50.6335 22.5164 50.3877 22.6702 50.2156 22.8723C50.0504 23.0662 49.8986 23.38 50.0121 23.7287C50.0877 23.9619 50.2573 24.1713 50.4162 24.3257C50.583 24.4878 50.7915 24.6408 51.0111 24.7458C51.0144 24.7475 51.0222 24.7519 51.0336 24.7591C51.0567 24.7737 51.0923 24.7986 51.1322 24.8344C51.2123 24.9064 51.3014 25.0148 51.3513 25.1683"
                    />
                    <path
                      fill-rule="evenodd"
                      clip-rule="evenodd"
                      d="M40.5847 49.1521C40.1437 49.4584 39.2995 49.3231 38.7389 48.517L40.5847 49.1521ZM38.7389 48.517C38.1793 47.7111 38.3461 46.8725 38.7868 46.565C38.9193 46.4732 39.0557 46.4409 39.1631 46.432C39.2167 46.4277 39.2602 46.4294 39.2876 46.4318C39.301 46.4329 39.31 46.4342 39.3137 46.4347C39.5522 46.484 39.8108 46.4881 40.0416 46.4599C40.2617 46.433 40.523 46.3686 40.7241 46.2292C41.0258 46.0201 41.0943 45.678 41.08 45.4239C41.0651 45.1589 40.9626 44.8879 40.8006 44.6545L39.0859 42.1868L38.2647 42.7574L39.9791 45.2247C39.9792 45.2248 39.9791 45.2247 39.9791 45.2247C40.0355 45.3061 40.0642 45.3821 40.0756 45.4371C40.0333 45.4491 39.9806 45.4599 39.9202 45.4673C39.7802 45.4844 39.6308 45.4796 39.5128 45.4548L39.4099 45.9441C39.5128 45.4548 39.513 45.4548 39.5128 45.4548L39.5112 45.4544L39.5093 45.454L39.505 45.4532L39.4943 45.4512C39.4862 45.4497 39.4763 45.448 39.4645 45.4462C39.441 45.4426 39.4103 45.4386 39.3733 45.4355C39.2997 45.4291 39.1994 45.4257 39.0813 45.4354C38.8457 45.4547 38.5281 45.5275 38.2165 45.7435L38.2156 45.7441C37.1585 46.4807 37.1701 48.0112 37.9176 49.0874C38.6656 50.1633 40.0966 50.7087 41.1552 49.9734C41.4667 49.7569 41.6459 49.4847 41.7463 49.2706C41.7966 49.1634 41.8285 49.0682 41.8482 48.997C41.8581 48.9612 41.8651 48.931 41.87 48.9077C41.8724 48.8961 41.8743 48.8861 41.8757 48.878L41.8776 48.8673L41.8782 48.863L41.8785 48.8611L41.8787 48.8598C41.8788 48.8596 41.8788 48.8594 41.3843 48.7852L41.8787 48.8598C41.8966 48.7408 41.9442 48.5986 42.0091 48.4733C42.0371 48.4191 42.0656 48.3735 42.0917 48.338C42.1392 48.3679 42.2002 48.421 42.2567 48.5024L43.9714 50.97L44.7926 50.3994L43.0782 47.9321C43.0782 47.9322 43.0781 47.932 43.0782 47.9321C42.9161 47.6986 42.6977 47.5078 42.4545 47.4014C42.2212 47.2993 41.8769 47.2446 41.5759 47.454C41.3745 47.5938 41.223 47.8167 41.1211 48.0134C41.0141 48.22 40.9278 48.4638 40.8909 48.7044C40.8901 48.708 40.8882 48.7168 40.8846 48.7297C40.8773 48.7561 40.8638 48.7974 40.841 48.8459C40.7953 48.9434 40.7172 49.06 40.5847 49.1521"
                    />
                  </svg>