 <svg
                                        xmlns="http://www.w3.org/2000/svg"
                                        width="35"
                                        height="35"
                                        viewBox="0 0 35 35"
                                    >
                                        <g>
                                            <path
                                                d="M26.4089 10.1527C26.3296 9.92688 26.1932 9.72539 26.0131 9.56777C25.833 9.41015 25.6152 9.30176 25.3808 9.25309C25.0759 9.21559 24.7664 9.2451 24.4741 9.33955C24.1817 9.43401 23.9135 9.59114 23.6882 9.79997C23.505 9.98044 23.3956 10.0925 23.0374 14.9625C22.8706 17.232 22.712 19.8105 22.712 20.2699C22.712 20.6254 22.5808 21.8175 22.4386 23.0343C22.4085 22.9632 22.3785 22.8894 22.3484 22.8047C21.9191 21.6261 20.9265 20.6172 19.5484 19.9746C18.6296 19.5425 17.7327 19.5754 17.1503 20.0675C16.9388 20.2416 16.7819 20.4729 16.6985 20.7338C16.6151 20.9947 16.6087 21.2742 16.68 21.5386C16.8195 22.0445 17.1777 22.5449 17.5933 23.1273C17.9753 23.62 18.3103 24.1473 18.5941 24.7023C18.8419 25.2789 19.0439 25.8741 19.1984 26.4824C19.3768 27.1964 19.6241 27.8915 19.9367 28.5578C20.0843 28.8449 20.2429 29.1511 20.407 29.4629C20.9157 30.3797 21.3722 31.3245 21.7742 32.2929C22.2499 33.5754 24.2105 34.7703 24.432 34.9015C24.5553 34.9573 24.695 34.9653 24.8239 34.924C24.9529 34.8827 25.0619 34.7951 25.13 34.6781C25.198 34.561 25.2202 34.4229 25.1923 34.2904C25.1644 34.1579 25.0883 34.0405 24.9788 33.9609C24.2679 33.5371 23.0429 32.5937 22.7913 31.9101C22.379 30.8982 21.9079 29.9112 21.3804 28.9543C21.2191 28.6453 21.0605 28.3445 20.9156 28.0601C20.629 27.4581 20.401 26.83 20.2347 26.1843C20.0648 25.5207 19.8426 24.8715 19.5702 24.2429C19.2616 23.6256 18.8954 23.0388 18.4765 22.4902C18.1692 22.114 17.917 21.696 17.7273 21.2488C17.7083 21.1855 17.7089 21.118 17.7289 21.0551C17.7489 20.9922 17.7874 20.9367 17.8394 20.8961C18.0281 20.7347 18.4519 20.6691 19.0671 20.9562C20.5683 21.6617 21.1124 22.6461 21.3038 23.1711C21.4867 23.7312 21.7997 24.24 22.2171 24.6558C22.1679 25.0386 22.1242 25.3777 22.0913 25.6293C22.081 25.7018 22.0853 25.7757 22.1041 25.8465C22.1229 25.9173 22.1557 25.9836 22.2006 26.0415C22.2454 26.0994 22.3015 26.1477 22.3654 26.1835C22.4293 26.2193 22.4998 26.2419 22.5726 26.25H22.6464C22.7799 26.2511 22.9093 26.2033 23.01 26.1157C23.1107 26.0281 23.1759 25.9066 23.1933 25.7742C23.2562 25.2984 23.814 21.1011 23.814 20.2644C23.814 19.2472 24.3417 11.6757 24.555 10.5054C24.7366 10.379 24.9546 10.3156 25.1757 10.325C25.2167 10.325 25.3124 10.355 25.4027 10.5683C25.5695 11.025 25.5941 13.8332 25.5339 17.2703V17.3496C25.5011 19.1953 25.4437 21.2187 25.3726 23.1519C25.3672 23.297 25.4196 23.4382 25.5183 23.5446C25.617 23.651 25.7539 23.7139 25.899 23.7193C26.044 23.7247 26.1853 23.6723 26.2917 23.5736C26.3981 23.4749 26.4609 23.338 26.4663 23.1929C26.5101 21.9925 26.5921 19.6027 26.6331 17.1773C26.6362 17.1019 26.6568 17.0283 26.6934 16.9623C26.7299 16.8963 26.7814 16.8398 26.8437 16.7972C27.0255 16.7083 27.2235 16.6574 27.4257 16.6475C27.6278 16.6376 27.8299 16.669 28.0195 16.7398C28.4378 16.9203 28.4378 17.4836 28.4378 17.5C28.4378 17.541 28.5226 21.6644 28.5062 22.5941C28.5062 22.7391 28.5638 22.8782 28.6664 22.9808C28.7689 23.0834 28.908 23.141 29.0531 23.141C29.1981 23.141 29.3372 23.0834 29.4398 22.9808C29.5423 22.8782 29.5999 22.7391 29.5999 22.5941C29.6136 21.834 29.5644 19.1242 29.5425 17.973C29.7649 17.9625 29.9872 17.9981 30.1952 18.0776C30.4032 18.1571 30.5925 18.2789 30.7511 18.4351C30.9425 18.6566 31.1503 19.5289 31.2269 20.1851V20.2261C31.3817 21.1718 31.3882 22.1359 31.246 23.0836C31.2334 23.1543 31.2349 23.2268 31.2503 23.297C31.2658 23.3672 31.2949 23.4336 31.336 23.4925C31.3772 23.5515 31.4295 23.6017 31.4901 23.6404C31.5507 23.679 31.6182 23.7054 31.689 23.7179C31.7208 23.7207 31.7529 23.7207 31.7847 23.7179C31.9146 23.7199 32.0409 23.6756 32.1411 23.593C32.2414 23.5103 32.3089 23.3947 32.3316 23.2668C32.4672 22.4121 32.4893 21.5432 32.3972 20.6828C32.5679 20.7172 32.7321 20.7781 32.8839 20.8632C33.3187 21.1093 33.6113 21.5632 33.6085 22.9824C33.6085 23.4992 33.6632 24.2675 33.7261 25.1699C33.8409 26.8105 33.9995 28.8558 33.83 30.0918C33.5949 31.9293 32.6214 34.1933 32.6132 34.2289C32.5808 34.2954 32.5623 34.3677 32.5587 34.4416C32.5551 34.5155 32.5665 34.5893 32.5922 34.6587C32.618 34.728 32.6575 34.7914 32.7085 34.845C32.7594 34.8986 32.8207 34.9413 32.8887 34.9706C32.9566 34.9998 33.0297 35.015 33.1037 35.0152C33.1777 35.0153 33.2509 35.0005 33.319 34.9715C33.387 34.9426 33.4485 34.9001 33.4997 34.8467C33.5509 34.7933 33.5907 34.7301 33.6167 34.6609C33.6605 34.5625 34.6585 32.2246 34.9128 30.2312C35.0824 28.9023 34.9347 26.7968 34.8144 25.107C34.7542 24.2375 34.6995 23.4882 34.6995 23.0097C34.6995 21.8476 34.5492 20.5761 33.4199 19.9363C33.0582 19.7323 32.6556 19.6118 32.2413 19.5836C32.1456 19.0175 31.9433 18.1617 31.5742 17.7379C31.2997 17.4517 30.9663 17.2287 30.5971 17.0842C30.2279 16.9397 29.8316 16.8772 29.4359 16.9011C29.3662 16.6455 29.2404 16.4086 29.0678 16.2076C28.8952 16.0066 28.68 15.8466 28.4378 15.739C27.8642 15.5291 27.2371 15.5156 26.655 15.7007C26.6714 13.0566 26.6277 10.664 26.4089 10.1527Z"
                                            />
                                            <path
                                                d="M20.1248 12.4989C20.1248 11.1642 19.729 9.85947 18.9875 8.7497C18.246 7.63992 17.192 6.77496 15.9589 6.26419C14.7258 5.75341 13.3689 5.61977 12.0598 5.88016C10.7507 6.14055 9.54829 6.78328 8.6045 7.72706C7.66072 8.67085 7.01799 9.87331 6.7576 11.1824C6.49721 12.4914 6.63085 13.8483 7.14163 15.0814C7.6524 16.3146 8.51736 17.3685 9.62714 18.11C10.7369 18.8516 12.0417 19.2474 13.3764 19.2474C15.1655 19.2452 16.8807 18.5335 18.1458 17.2684C19.4109 16.0033 20.1226 14.2881 20.1248 12.4989ZM13.3764 18.1536C12.258 18.1536 11.1647 17.822 10.2348 17.2006C9.30489 16.5793 8.58011 15.6961 8.15212 14.6629C7.72413 13.6296 7.61215 12.4927 7.83034 11.3958C8.04852 10.2989 8.58708 9.29128 9.3779 8.50046C10.1687 7.70964 11.1763 7.17108 12.2732 6.95289C13.3701 6.73471 14.5071 6.84669 15.5403 7.27468C16.5736 7.70267 17.4567 8.42744 18.0781 9.35735C18.6994 10.2873 19.0311 11.3805 19.0311 12.4989C19.0296 13.9982 18.4334 15.4357 17.3732 16.4958C16.3131 17.5559 14.8756 18.1522 13.3764 18.1536Z"
                                            />
                                            <path
                                                d="M0.528015 14.9543L3.40731 15.8594C3.85243 17.1773 4.55303 18.3945 5.46903 19.4414L4.82372 22.3918C4.8012 22.4917 4.8072 22.596 4.84105 22.6926C4.87489 22.7893 4.9352 22.8746 5.01512 22.9386C6.07162 23.7857 7.25087 24.4671 8.51239 24.9594C8.60768 24.9965 8.71149 25.0063 8.81202 24.9874C8.91256 24.9686 9.0058 24.9219 9.08114 24.8527L11.3097 22.8129C11.9894 22.949 12.6809 23.0177 13.3741 23.0179C14.0803 23.0344 14.7857 22.9627 15.4741 22.8047C15.6155 22.7724 15.7383 22.6853 15.8155 22.5625C15.8927 22.4396 15.9179 22.2912 15.8856 22.1498C15.8534 22.0084 15.7662 21.8856 15.6434 21.8084C15.5206 21.7312 15.3722 21.706 15.2307 21.7383C14.6223 21.8789 13.9984 21.9414 13.3741 21.9242C12.6656 21.9239 11.9594 21.8441 11.2686 21.6863C11.1827 21.6667 11.0934 21.6682 11.0082 21.6905C10.9229 21.7129 10.8444 21.7556 10.7792 21.8148L8.59169 23.8136C7.65511 23.4181 6.77148 22.9074 5.96122 22.2933L6.60653 19.414C6.62541 19.3277 6.62308 19.2381 6.59975 19.1528C6.57641 19.0676 6.53277 18.9893 6.47255 18.9246C5.50769 17.879 4.79084 16.6294 4.37528 15.2687C4.34927 15.1841 4.30308 15.107 4.24068 15.0441C4.17829 14.9812 4.10155 14.9344 4.01708 14.9078L1.187 14.0164C1.06255 13.0076 1.06255 11.9873 1.187 10.9785L4.00614 10.0871C4.09263 10.062 4.17159 10.0159 4.23598 9.95292C4.30038 9.88995 4.34823 9.81206 4.37528 9.72615C4.79555 8.36835 5.5161 7.12258 6.48348 6.08123C6.5437 6.01654 6.58735 5.93822 6.61068 5.85298C6.63402 5.76774 6.63635 5.67811 6.61747 5.59177L5.96669 2.70427C6.77701 2.09029 7.66063 1.57959 8.59716 1.18396L10.7847 3.18005C10.8499 3.23932 10.9284 3.28195 11.0136 3.30433C11.0988 3.32671 11.1882 3.32816 11.2741 3.30857C12.6589 2.99152 14.0975 2.99152 15.4823 3.30857C15.5682 3.32816 15.6576 3.32671 15.7428 3.30433C15.828 3.28195 15.9066 3.23932 15.9718 3.18005L18.1593 1.18396C19.0929 1.58017 19.9738 2.09085 20.7815 2.70427L20.1472 5.59451C20.1283 5.68085 20.1306 5.77047 20.1539 5.85571C20.1773 5.94096 20.2209 6.01927 20.2811 6.08396C21.1126 6.97452 21.7627 8.01841 22.1952 9.1574C22.2207 9.22455 22.2592 9.28602 22.3084 9.3383C22.3577 9.39058 22.4167 9.43265 22.4822 9.4621C22.5478 9.49155 22.6184 9.50782 22.6902 9.50996C22.762 9.5121 22.8335 9.50008 22.9007 9.47459C22.9678 9.44909 23.0293 9.41062 23.0816 9.36137C23.1339 9.31212 23.1759 9.25305 23.2054 9.18754C23.2348 9.12203 23.2511 9.05136 23.2532 8.97957C23.2554 8.90778 23.2434 8.83626 23.2179 8.76912C22.7706 7.59004 22.1138 6.50156 21.2792 5.55623L21.9272 2.6031C21.9498 2.50317 21.9437 2.39892 21.9099 2.30223C21.8761 2.20554 21.8158 2.12031 21.7358 2.05623C20.6791 1.21017 19.4999 0.529739 18.2386 0.0382564C18.1433 0.0010622 18.0395 -0.00866182 17.9389 0.010189C17.8384 0.0290398 17.7452 0.0757098 17.6698 0.144897L15.4413 2.18748C14.0786 1.91421 12.6751 1.91421 11.3124 2.18748L9.08114 0.142163C9.00551 0.073434 8.91214 0.0272697 8.81162 0.00890429C8.71109 -0.00946109 8.60743 0.000707278 8.51239 0.0382564C7.25187 0.53083 6.07356 1.21218 5.01786 2.05896C4.93794 2.12304 4.87762 2.20828 4.84378 2.30497C4.80994 2.40165 4.80394 2.5059 4.82645 2.60583L5.46903 5.55349C4.55072 6.59807 3.84734 7.81342 3.39911 9.13005L0.528015 10.0406C0.430176 10.0712 0.342917 10.1288 0.276197 10.2066C0.209476 10.2844 0.16598 10.3795 0.150671 10.4808C-0.0515257 11.8186 -0.0515257 13.1791 0.150671 14.5168C0.166454 14.6177 0.210164 14.7121 0.276853 14.7894C0.343542 14.8667 0.430546 14.9238 0.528015 14.9543ZM21.096 19.641C21.5427 19.2034 21.8816 18.668 22.0858 18.0769C22.1236 17.9399 22.1065 17.7936 22.0382 17.6689C21.9699 17.5443 21.8558 17.4511 21.72 17.4092C21.5842 17.3672 21.4374 17.3798 21.3107 17.4442C21.184 17.5086 21.0874 17.6198 21.0413 17.7543C20.8814 18.1916 20.6232 18.5864 20.2866 18.9082C20.2174 18.987 20.1723 19.084 20.1567 19.1877C20.1411 19.2914 20.1556 19.3974 20.1985 19.493C20.2415 19.5887 20.311 19.67 20.3988 19.7273C20.4867 19.7845 20.5892 19.8153 20.694 19.816C20.7695 19.8161 20.8441 19.8006 20.9133 19.7705C20.9825 19.7404 21.0447 19.6963 21.096 19.641Z"
                                            />
                                        </g>
                                    </svg>