<svg
                          xmlns="http://www.w3.org/2000/svg"
                          width="36"
                          height="36"
                          viewBox="0 0 36 36"
                        >
                          <path
                            fill-rule="evenodd"
                            clip-rule="evenodd"
                            d="M17.9999 5.85712C15.2406 5.85712 12.9999 8.09783 12.9999 10.8571C12.9999 13.6164 15.2406 15.8571 17.9999 15.8571C20.7591 15.8571 22.9999 13.6164 22.9999 10.8571C22.9999 8.09783 20.7591 5.85712 17.9999 5.85712ZM17.9999 7.28569C19.9713 7.28569 21.5713 8.88569 21.5713 10.8571C21.5713 12.8285 19.9713 14.4285 17.9999 14.4285C16.0284 14.4285 14.4284 12.8285 14.4284 10.8571C14.4284 8.88569 16.0284 7.28569 17.9999 7.28569ZM27.9999 8.71426C25.2406 8.71426 22.9999 10.955 22.9999 13.7143C22.9999 16.4735 25.2406 18.7143 27.9999 18.7143C30.7591 18.7143 32.9999 16.4735 32.9999 13.7143C32.9999 10.955 30.7591 8.71426 27.9999 8.71426ZM27.9999 10.1428C29.9713 10.1428 31.5713 11.7428 31.5713 13.7143C31.5713 15.6857 29.9713 17.2857 27.9999 17.2857C26.0284 17.2857 24.4284 15.6857 24.4284 13.7143C24.4284 11.7428 26.0284 10.1428 27.9999 10.1428ZM7.99986 8.71426C5.24057 8.71426 2.99986 10.955 2.99986 13.7143C2.99986 16.4735 5.24057 18.7143 7.99986 18.7143C10.7591 18.7143 12.9999 16.4735 12.9999 13.7143C12.9999 10.955 10.7591 8.71426 7.99986 8.71426ZM7.99986 10.1428C9.97129 10.1428 11.5713 11.7428 11.5713 13.7143C11.5713 15.6857 9.97129 17.2857 7.99986 17.2857C6.02843 17.2857 4.42843 15.6857 4.42843 13.7143C4.42843 11.7428 6.02843 10.1428 7.99986 10.1428ZM11.0541 20.4128C11.6246 19.4588 12.4329 18.6692 13.4 18.121C14.367 17.5729 15.4597 17.2851 16.5713 17.2857H19.4284C20.54 17.2851 21.6327 17.5729 22.5998 18.121C23.5668 18.6692 24.3751 19.4588 24.9456 20.4128C25.4688 20.2335 26.0182 20.1423 26.5713 20.1428H29.4284C30.7545 20.1428 32.0263 20.6696 32.964 21.6073C33.9016 22.545 34.4284 23.8167 34.4284 25.1428V28C34.4284 28.5683 34.2027 29.1133 33.8008 29.5152C33.3989 29.9171 32.8539 30.1428 32.2856 30.1428H3.71415C3.14583 30.1428 2.60078 29.9171 2.19892 29.5152C1.79705 29.1133 1.57129 28.5683 1.57129 28V25.1428C1.57129 23.8167 2.09807 22.545 3.03576 21.6073C3.97344 20.6696 5.24521 20.1428 6.57129 20.1428H9.42843C9.99772 20.1428 10.5441 20.2378 11.0541 20.4128ZM10.4577 21.7221C10.1238 21.622 9.77704 21.5712 9.42843 21.5714H6.57129C5.62409 21.5714 4.71568 21.9477 4.04591 22.6175C3.37613 23.2872 2.99986 24.1956 2.99986 25.1428V28C2.99986 28.1894 3.07512 28.3711 3.20907 28.5051C3.34302 28.639 3.52471 28.7143 3.71415 28.7143H10.2656C10.1842 28.4849 10.1426 28.2433 10.1427 28V23.7143C10.1427 23.0185 10.2534 22.3493 10.4577 21.7221ZM24.4284 23.7143V28C24.4287 28.0939 24.4104 28.1869 24.3746 28.2737C24.3388 28.3604 24.2862 28.4393 24.2199 28.5057C24.1535 28.5721 24.0746 28.6247 23.9878 28.6605C23.901 28.6963 23.808 28.7145 23.7141 28.7143H12.2856C12.1917 28.7145 12.0987 28.6963 12.0119 28.6605C11.9251 28.6247 11.8463 28.5721 11.7799 28.5057C11.7135 28.4393 11.6609 28.3604 11.6251 28.2737C11.5893 28.1869 11.571 28.0939 11.5713 28V23.7143C11.5713 22.3882 12.0981 21.1164 13.0358 20.1787C13.9734 19.241 15.2452 18.7143 16.5713 18.7143H19.4284C20.085 18.7143 20.7352 18.8436 21.3418 19.0949C21.9485 19.3461 22.4997 19.7144 22.964 20.1787C23.4283 20.643 23.7966 21.1942 24.0478 21.8008C24.2991 22.4075 24.4284 23.0577 24.4284 23.7143ZM25.7341 28.7143H32.2856C32.475 28.7143 32.6567 28.639 32.7907 28.5051C32.9246 28.3711 32.9999 28.1894 32.9999 28V25.1428C32.9999 24.1956 32.6236 23.2872 31.9538 22.6175C31.284 21.9477 30.3756 21.5714 29.4284 21.5714H26.5713C26.2134 21.5714 25.8684 21.6243 25.542 21.7221C25.7463 22.3493 25.857 23.0185 25.857 23.7143V28C25.857 28.2457 25.8149 28.4871 25.7341 28.7143Z"
                          />
                        </svg>