<svg
                            xmlns="http://www.w3.org/2000/svg"
                            width="16"
                            height="16"
                            viewBox="0 0 16 16"
                          >
                            <g>
                              <path d="M16 8C16 8.68267 15.1613 9.24533 14.9933 9.87467C14.82 10.5253 15.2587 11.432 14.9293 12.0013C14.5947 12.58 13.588 12.6493 13.1187 13.1187C12.6493 13.588 12.58 14.5947 12.0013 14.9293C11.432 15.2587 10.5253 14.82 9.87467 14.9933C9.24533 15.1613 8.68267 16 8 16C7.31733 16 6.75467 15.1613 6.12533 14.9933C5.47467 14.82 4.568 15.2587 3.99867 14.9293C3.42 14.5947 3.35067 13.588 2.88133 13.1187C2.412 12.6493 1.40533 12.58 1.07067 12.0013C0.741333 11.432 1.18 10.5253 1.00667 9.87467C0.838667 9.24533 0 8.68267 0 8C0 7.31733 0.838667 6.75467 1.00667 6.12533C1.18 5.47467 0.741333 4.568 1.07067 3.99867C1.40533 3.42 2.412 3.35067 2.88133 2.88133C3.35067 2.412 3.42 1.40533 3.99867 1.07067C4.568 0.741333 5.47467 1.18 6.12533 1.00667C6.75467 0.838667 7.31733 0 8 0C8.68267 0 9.24533 0.838667 9.87467 1.00667C10.5253 1.18 11.432 0.741333 12.0013 1.07067C12.58 1.40533 12.6493 2.412 13.1187 2.88133C13.588 3.35067 14.5947 3.42 14.9293 3.99867C15.2587 4.568 14.82 5.47467 14.9933 6.12533C15.1613 6.75467 16 7.31733 16 8Z" />
                              <path d="M10.312 5.61587L7.26668 8.6612L5.68802 7.08387C5.52338 6.91932 5.30013 6.82688 5.06735 6.82688C4.83458 6.82688 4.61133 6.91932 4.44668 7.08387C4.28213 7.24851 4.1897 7.47176 4.1897 7.70454C4.1897 7.93731 4.28213 8.16056 4.44668 8.3252L6.66135 10.5399C6.8216 10.6999 7.03885 10.7899 7.26535 10.7899C7.49186 10.7899 7.7091 10.6999 7.86935 10.5399L11.552 6.8572C11.7166 6.69256 11.809 6.46931 11.809 6.23654C11.809 6.00376 11.7166 5.78051 11.552 5.61587C11.4706 5.5344 11.374 5.46977 11.2676 5.42568C11.1612 5.38158 11.0472 5.35889 10.932 5.35889C10.8169 5.35889 10.7028 5.38158 10.5964 5.42568C10.4901 5.46977 10.3934 5.5344 10.312 5.61587Z" />
                            </g>
                          </svg>