<svg xmlns="http://www.w3.org/2000/svg" width="190" height="102" viewBox="0 0 190 102">
    <defs>
        <linearGradient id="prefix__a" x1="50%" x2="100%" y1="61.944%" y2="61.944%">
            <stop offset="0%" stop-color="#F7F7F7"/>
            <stop offset="100%" stop-color="#FFCA69" stop-opacity=".254"/>
        </linearGradient>
        <linearGradient id="prefix__b" x1="97.005%" x2="22.565%" y1="50%" y2="50%">
            <stop offset="0%" stop-color="#F786B6"/>
            <stop offset="100%" stop-color="#F786B6"/>
        </linearGradient>
    </defs>
    <g fill="none" fill-rule="evenodd">
        <rect width="11" height="11" x="17" y="74" fill="#56D1FF" fill-opacity=".138" rx="5.5"/>
        <rect width="18" height="18" x="44" y="29" fill="#56D1FF" fill-opacity=".138" rx="9"/>
        <rect width="104" height="36" y="57" fill="#64E4DD" fill-opacity=".254" opacity=".847" rx="18"/>
        <rect width="121" height="52" x="49" y="29" fill="url(#prefix__a)" rx="25.875"/>
        <rect width="107.5" height="25" x="31.5" y="17" fill="#1A90DC" fill-opacity=".112" rx="12.5"/>
        <rect width="88" height="40" x="102" y="61" fill="url(#prefix__b)" opacity=".194" rx="20"/>
        <rect width="25" height="25" x="89" y="49" fill="#C1C1C1" fill-opacity=".238" rx="12.5"/>
        <rect width="20" height="20" x="149" y="20" fill="#64E4DD" fill-opacity=".27" opacity=".652" rx="10"/>
        <rect width="33" height="33" x="68" fill="#64E4DD" fill-opacity=".27" opacity=".652" rx="16.5"/>
        <g>
            <path fill="#1A90DC" fill-rule="nonzero" d="M0 64c0-11.26 10.43-20.381 23.294-20.381S46.588 52.74 46.588 64H0z" transform="translate(31 38)"/>
            <path fill="#1B1B1B" d="M10.927 27.119H35.816V43.39H10.927z" transform="translate(31 38)"/>
            <path fill="#C3A07F" fill-rule="nonzero" d="M28.283 37.449h-9.978v8.734s.817 2.913 4.891 2.913c4.061 0 5.087-2.913 5.087-2.913V37.45zm9.57-7.28c0 2.411-1.956 4.367-4.367 4.367S29.12 32.58 29.12 30.17s1.956-4.367 4.367-4.367 4.367 1.956 4.367 4.367zm-20.381 0c0 2.411-1.956 4.367-4.367 4.367-2.412 0-4.367-1.956-4.367-4.367s1.955-4.367 4.367-4.367c2.411 0 4.367 1.956 4.367 4.367z" transform="translate(31 38)"/>
            <path fill="#0BD7CC" fill-rule="nonzero" d="M81.356 64c0-11.26 10.43-20.381 23.294-20.381S127.944 52.74 127.944 64H81.356z" transform="translate(31 38)"/>
            <path fill="#C1975A" fill-rule="nonzero" d="M109.639 37.449H99.66v8.734s.817 2.913 4.891 2.913c4.061 0 5.087-2.913 5.087-2.913V37.45zm9.57-7.28c0 2.411-1.956 4.367-4.367 4.367s-4.367-1.956-4.367-4.367 1.956-4.367 4.367-4.367 4.367 1.956 4.367 4.367zm-20.381 0c0 2.411-1.956 4.367-4.367 4.367-2.412 0-4.367-1.956-4.367-4.367s1.955-4.367 4.367-4.367c2.408 0 4.367 1.956 4.367 4.367z" transform="translate(31 38)"/>
            <path fill="#DFB270" fill-rule="nonzero" d="M116.147 20.78c0-7.725-7.745-5.987-15.897-6.378-3.785-.179-6.883 2.743-6.883 6.531v10.102c0 5.558 3.743 10.69 9.207 11.708 7.24 1.35 13.573-4.185 13.573-11.184V20.78z" transform="translate(31 38)"/>
            <path fill="#424242" fill-rule="nonzero" d="M104.757 9.763c13.56 0 14.644 11.39 14.644 15.183v4.22l-3.254 2.962v-8.65l-18.25-6.511-4.582 6.557.1 8.848-3.302-2.971v-3.56c0-4.688 1.085-16.078 14.644-16.078z" transform="translate(31 38)"/>
            <path fill="#4E342E" fill-rule="nonzero" d="M53.232 8.678L74.927 8.678 74.927 41.22 53.232 41.22z" transform="translate(31 38)"/>
            <path fill="#FF6DAB" fill-rule="nonzero" d="M38.045 64c0-12.584 11.657-22.78 26.034-22.78 14.377 0 26.034 10.196 26.034 22.78H38.045z" transform="translate(31 38)"/>
            <path fill="#947356" fill-rule="nonzero" d="M70.588 34.712H57.57v9.763s1.067 3.254 6.381 3.254c5.301 0 6.636-3.254 6.636-3.254v-9.763zm9.762-8.484c0 2.695-2.186 4.881-4.881 4.881-2.694 0-4.881-2.186-4.881-4.88 0-2.695 2.187-4.882 4.881-4.882 2.695 0 4.881 2.187 4.881 4.881zm-22.78 0c0 2.695-2.186 4.881-4.88 4.881-2.695 0-4.882-2.186-4.882-4.88 0-2.695 2.187-4.882 4.881-4.882 2.695 0 4.882 2.187 4.882 4.881z" transform="translate(31 38)"/>
            <path fill="#B48F6E" fill-rule="nonzero" d="M77.096 15.886c0-7.169-5.835-7.208-13.017-7.208-7.182 0-13.017.039-13.017 7.208v12.317c0 7.182 5.835 13.017 13.017 13.017 7.182 0 13.017-5.835 13.017-13.017V15.886z" transform="translate(31 38)"/>
            <path fill="#795548" fill-rule="nonzero" d="M64.08 0C51.197 0 44.04 9.45 42.603 28.348c-.196 2.578.895 5.086 2.913 6.701l7.715 6.171V25.953c0-3.94 2.225-7.54 5.749-9.302l11.607-5.804 4.339 6.706V41.22L82.703 35c1.977-1.583 3.067-4.025 2.923-6.553-.968-16.992-6.178-25.488-15.63-25.488C69.024 1.138 67.128 0 65.064 0h-.986z" transform="translate(31 38)"/>
            <path fill="#E7C19C" fill-rule="nonzero" d="M34.791 20.78c0-7.725-7.745-5.987-15.897-6.378-3.785-.179-6.883 2.743-6.883 6.531v10.102c0 5.558 3.743 10.69 9.207 11.708 7.24 1.35 13.573-4.185 13.573-11.184V20.78z" transform="translate(31 38)"/>
            <path fill="#424242" fill-rule="nonzero" d="M22.75 8.678c-7.143.417-14.012 5.48-13.993 16.268V43.39h3.254l2.724-8.852c2.406-7.818 8.063-14.221 15.526-17.571 2.982 4.267 4.575 9.35 4.561 14.556l-.03 11.867h3.253V25.84c0-7.145-.397-12.44-8.679-14.2-.854-1.809-2.675-2.962-4.674-2.962H22.75z" transform="translate(31 38)"/>
        </g>
    </g>
</svg>
