<svg width="17" height="17" viewBox="0 0 17 17" fill="none" xmlns="http://www.w3.org/2000/svg">
<g clip-path="url(#clip0_2670_1684)">
<path d="M10.8598 2.84981C11.9353 1.76981 13.5088 1.74731 14.3796 2.62181C15.2526 3.49781 15.2293 5.08181 14.1523 6.16181L12.3351 7.98656C12.2327 8.09279 12.1762 8.23496 12.1777 8.38245C12.1792 8.52994 12.2386 8.67095 12.343 8.77509C12.4475 8.87924 12.5886 8.9382 12.7361 8.93927C12.8836 8.94034 13.0256 8.88343 13.1316 8.78081L14.9496 6.95606C16.3828 5.51681 16.5628 3.21956 15.1768 1.82756C13.7893 0.43481 11.4966 0.61631 10.0618 2.05556L6.42732 5.70581C4.99407 7.14506 4.81407 9.44231 6.20007 10.8336C6.25184 10.8874 6.3138 10.9304 6.38236 10.96C6.45091 10.9896 6.52468 11.0053 6.59936 11.0061C6.67404 11.007 6.74813 10.9929 6.81732 10.9648C6.88651 10.9367 6.9494 10.895 7.00234 10.8424C7.05527 10.7897 7.09718 10.727 7.12563 10.6579C7.15407 10.5889 7.16848 10.5148 7.16802 10.4402C7.16755 10.3655 7.15222 10.2916 7.12291 10.2229C7.0936 10.1542 7.05091 10.0921 6.99732 10.0401C6.12432 9.16406 6.14832 7.58006 7.22457 6.50006L10.8598 2.84981Z" fill="black"/>
<path d="M9.92659 7.03947C9.82117 6.93375 9.67807 6.87423 9.52876 6.87402C9.37946 6.87381 9.23619 6.93292 9.13047 7.03834C9.02475 7.14377 8.96523 7.28687 8.96502 7.43617C8.96481 7.58548 9.02392 7.72875 9.12934 7.83447C10.0023 8.71047 9.97909 10.2937 8.90209 11.3745L5.26684 15.024C4.19059 16.104 2.61709 16.1265 1.74634 15.252C0.873344 14.376 0.897344 12.792 1.97359 11.712L3.79159 9.88722C3.84375 9.83487 3.88508 9.77276 3.91322 9.70444C3.94137 9.63612 3.95579 9.56293 3.95565 9.48903C3.95551 9.41514 3.94082 9.342 3.91241 9.27379C3.88401 9.20557 3.84244 9.14362 3.79009 9.09147C3.73775 9.03932 3.67564 8.99799 3.60732 8.96984C3.539 8.94169 3.4658 8.92728 3.39191 8.92741C3.31802 8.92755 3.24488 8.94225 3.17666 8.97065C3.10845 8.99906 3.0465 9.04062 2.99434 9.09297L1.17634 10.9177C-0.256906 12.3577 -0.436906 14.6542 0.949094 16.0462C2.33659 17.4397 4.62934 17.2575 6.06409 15.8182L9.69934 12.168C11.1326 10.7295 11.3126 8.43072 9.92659 7.03947Z" fill="black"/>
</g>
<defs>
<clipPath id="clip0_2670_1684">
<rect width="16.1259" height="16.126" fill="white" transform="translate(0 0.874023)"/>
</clipPath>
</defs>
</svg>
