<svg height={40} width={90} id="Layer_1" data-name="Layer 1" xmlns="http://www.w3.org/2000/svg" viewBox="0 0 41.05 34.56">
        <defs>
          <style dangerouslySetInnerHTML={{__html: "\n                        .cls-1 {\n                            fill: #335caa;\n                        }\n\n                        .cls-2 {\n                            fill: #282827;\n                        }\n\n                        .cls-3 {\n                            fill: #2458a5;\n                        }\n\n                        .cls-4 {\n                            fill: #15c0de;\n                        }\n\n                        .cls-5 {\n                            fill: #194c9d;\n                        }\n\n                        .cls-6 {\n                            fill: #00b2ce;\n                        }\n\n                        .cls-7 {\n                            fill: #4457a6;\n                        }\n\n                        .cls-8 {\n                            fill: #1c75bb;\n                        }" }} /></defs>
        <path className="cls-1" d="M.38,32.35H.62L1,33.88H.78L.6,33.06c0-.16-.07-.33-.1-.5h0c0,.17-.07.34-.1.5l-.18.82H0Zm-.16.9H.77v.22H.22Z" />
        <path className="cls-1" d="M1.79,33.45v-.72H2v.69c0,.19,0,.26.14.26s.12,0,.19-.16v-.79h.2v1.15H2.36l0-.17h0a.33.33,0,0,1-.28.2C1.87,33.91,1.79,33.74,1.79,33.45Z" />
        <path className="cls-1" d="M3.5,33.49v-.55H3.37v-.2h.14l0-.32H3.7v.32h.22v.21H3.7v.55q0,.21.12.21l.09,0,0,.2a.48.48,0,0,1-.18,0C3.57,33.91,3.5,33.74,3.5,33.49Z" />
        <path className="cls-1" d="M4.7,33.31c0-.39.2-.61.41-.61s.42.22.42.61-.2.6-.42.6S4.7,33.69,4.7,33.31Zm.62,0c0-.24-.08-.39-.21-.39s-.2.15-.2.39.08.38.2.38S5.32,33.54,5.32,33.31Z" />
        <path className="cls-1" d="M6.41,32.73h.17l0,.16h0c.08-.11.16-.19.27-.19s.2.08.24.21c.08-.12.17-.21.28-.21s.27.17.27.46v.72H7.45v-.69c0-.19,0-.26-.13-.26s-.12,0-.18.15v.8H6.93v-.69c0-.19,0-.26-.13-.26s-.11,0-.18.15v.8H6.41Z" />
        <path className="cls-1" d="M8.54,33.57c0-.25.16-.37.51-.42,0-.13,0-.23-.15-.23a.43.43,0,0,0-.25.11l-.07-.18a.56.56,0,0,1,.35-.15c.22,0,.33.18.33.5v.68H9.09v-.13h0a.39.39,0,0,1-.27.16C8.65,33.91,8.54,33.77,8.54,33.57Zm.51,0v-.26c-.23,0-.31.12-.31.24s0,.15.12.15S9,33.65,9.05,33.57Z" />
        <path className="cls-1" d="M10.19,33.49v-.55h-.13v-.2h.14l0-.32h.17v.32h.22v.21h-.22v.55c0,.14,0,.21.13.21l.09,0,0,.2a.48.48,0,0,1-.18,0C10.26,33.91,10.19,33.74,10.19,33.49Z" />
        <path className="cls-1" d="M11.39,33.31c0-.38.2-.61.41-.61s.35.23.35.55v.13h-.56c0,.2.12.32.26.32a.32.32,0,0,0,.2-.08l.07.17a.47.47,0,0,1-.3.12C11.58,33.91,11.39,33.69,11.39,33.31ZM12,33.2c0-.18-.06-.29-.18-.29s-.19.1-.21.29Z" />
        <path className="cls-1" d="M13,33.73c0-.11.06-.19.14-.19s.13.08.13.19-.06.18-.13.18A.16.16,0,0,1,13,33.73Z" />
        <path className="cls-1" d="M15.18,33.69l.12-.19a.41.41,0,0,0,.3.17.18.18,0,0,0,.2-.2c0-.12-.07-.16-.18-.22l-.16-.09a.45.45,0,0,1-.23-.41.4.4,0,0,1,.39-.43.45.45,0,0,1,.35.19l-.1.18a.31.31,0,0,0-.25-.14.17.17,0,0,0-.18.18c0,.13.08.17.18.22l.16.09a.44.44,0,0,1,.23.41.42.42,0,0,1-.41.46A.54.54,0,0,1,15.18,33.69Z" />
        <path className="cls-1" d="M16.87,32.37c0-.09.05-.15.12-.15a.14.14,0,0,1,.13.15.15.15,0,0,1-.13.16C16.92,32.53,16.87,32.46,16.87,32.37Zm0,.36h.2v1.15h-.2Z" />
        <path className="cls-1" d="M18,32.73h.16l0,.16h0c.08-.11.16-.19.27-.19s.2.08.24.21c.08-.12.17-.21.28-.21s.27.17.27.46v.72h-.21v-.69c0-.19,0-.26-.13-.26s-.11,0-.18.15v.8h-.2v-.69c0-.19,0-.26-.14-.26s-.11,0-.18.15v.8H18Z" />
        <path className="cls-1" d="M20.21,32.73h.17v.12h0a.39.39,0,0,1,.26-.15c.22,0,.34.23.34.59s-.17.62-.37.62a.31.31,0,0,1-.22-.13v.56h-.2Zm.58.56c0-.23-.05-.37-.19-.37s-.12,0-.19.13v.54a.28.28,0,0,0,.18.1C20.7,33.69,20.79,33.55,20.79,33.29Z" />
        <path className="cls-1" d="M21.88,33.59V32.22h.21V33.6c0,.07,0,.09,0,.09h0l0,.21-.11,0C21.94,33.91,21.88,33.79,21.88,33.59Z" />
        <path className="cls-1" d="M23,32.37a.14.14,0,0,1,.13-.15c.07,0,.12.06.12.15s-.05.16-.12.16A.15.15,0,0,1,23,32.37Zm0,.36h.21v1.15H23Z" />
        <path className="cls-1" d="M24.11,32.74h.49v.21h-.49Zm.12-.13c0-.24.08-.42.29-.42a.3.3,0,0,1,.15,0l0,.21-.1,0c-.07,0-.11.06-.11.19v1.28h-.2Z" />
        <path className="cls-1" d="M25.38,34.33l0-.21.06,0c.09,0,.14-.08.17-.2l0-.07-.34-1.14h.21l.15.56c0,.11,0,.22.07.33h0c0-.11,0-.22.07-.33l.12-.56h.2l-.31,1.2c-.08.26-.17.43-.36.43A.2.2,0,0,1,25.38,34.33Z" />
        <path className="cls-1" d="M26.89,33.73c0-.11.06-.19.14-.19s.13.08.13.19-.06.18-.13.18A.16.16,0,0,1,26.89,33.73Z" />
        <path className="cls-1" d="M29.14,32.35h.69v.22h-.49V33h.42v.23h-.42v.45h.51v.23h-.71Z" />
        <path className="cls-1" d="M30.75,32.73h.17l0,.16h0c.08-.11.16-.19.27-.19s.2.08.24.21c.08-.12.17-.21.28-.21s.27.17.27.46v.72h-.21v-.69c0-.19,0-.26-.13-.26s-.12,0-.18.15v.8h-.21v-.69c0-.19,0-.26-.13-.26s-.11,0-.18.15v.8h-.21Z" />
        <path className="cls-1" d="M32.93,32.73h.17v.12h0a.37.37,0,0,1,.26-.15c.22,0,.34.23.34.59s-.18.62-.37.62a.31.31,0,0,1-.22-.13v.56h-.2Zm.58.56c0-.23,0-.37-.19-.37s-.12,0-.19.13v.54a.28.28,0,0,0,.18.1C33.42,33.69,33.51,33.55,33.51,33.29Z" />
        <path className="cls-1" d="M34.55,33.31c0-.39.2-.61.42-.61s.41.22.41.61-.2.6-.41.6S34.55,33.69,34.55,33.31Zm.62,0c0-.24-.07-.39-.2-.39s-.21.15-.21.39.08.38.21.38S35.17,33.54,35.17,33.31Z" />
        <path className="cls-1" d="M36.17,32.73h.2l.11.6c0,.11,0,.22,0,.33h0l.06-.33.11-.6h.19l.11.6.06.33h0c0-.11,0-.22,0-.33l.11-.6h.19l-.22,1.15h-.25l-.1-.54c0-.1,0-.21-.05-.33h0c0,.12,0,.23-.05.34l-.1.53H36.4Z" />
        <path className="cls-1" d="M38.2,33.31c0-.38.19-.61.4-.61s.36.23.36.55c0,0,0,.1,0,.13h-.56c0,.2.12.32.26.32a.3.3,0,0,0,.2-.08l.07.17a.47.47,0,0,1-.3.12C38.38,33.91,38.2,33.69,38.2,33.31Zm.58-.11c0-.18-.06-.29-.18-.29s-.19.1-.21.29Z" />
        <path className="cls-1" d="M39.83,32.73H40l0,.2h0c.06-.15.16-.23.25-.23l.1,0,0,.24-.09,0c-.07,0-.15.06-.2.24v.7h-.21Z" />
        <path className="cls-2" d="M2.17,21.34v3.85H5.51V21.34h.91v9.2H5.51V26.23H2.17v4.31h-.9v-9.2Z" />
        <path className="cls-2" d="M8.28,21.47A6.67,6.67,0,0,1,10,21.28,2.37,2.37,0,0,1,12,22a2.66,2.66,0,0,1,.55,1.74,2.43,2.43,0,0,1-1.31,2.35v0c.54.25.85.9,1,1.86a18.51,18.51,0,0,0,.53,2.52h-.92a14.82,14.82,0,0,1-.46-2.2c-.21-1.27-.58-1.74-1.39-1.78H9.17v4H8.28Zm.89,4.18h.91a1.55,1.55,0,0,0,1.56-1.74,1.5,1.5,0,0,0-1.59-1.72,2.61,2.61,0,0,0-.88.11Z" />
        <path className="cls-2" d="M15.4,30.54l-1.75-9.2h.94L15.41,26c.21,1.14.39,2.29.51,3.17h0c.11-.91.32-2,.56-3.19l.92-4.64h.94L19.21,26c.2,1.09.38,2.18.48,3.15h0c.15-1,.34-2,.56-3.18l.91-4.64h.92l-2,9.2H19.2l-.87-4.79c-.22-1.17-.36-2.07-.45-3h0c-.12.91-.27,1.81-.53,3l-1,4.79Z" />
        <path className="cls-2" d="M23.18,20.85h.91V25h0a2,2,0,0,1,.64-.84,1.52,1.52,0,0,1,.93-.34c.67,0,1.73.54,1.73,2.82v3.93h-.9V26.75c0-1.07-.3-2-1.15-2A1.41,1.41,0,0,0,24.15,26a2,2,0,0,0-.06.58v4h-.91Z" />
        <path className="cls-2" d="M30.2,22.08c0,.41-.22.74-.58.74s-.54-.33-.54-.74.23-.75.56-.75S30.2,21.66,30.2,22.08Zm-1,8.46v-6.6h.9v6.6Z" />
        <path className="cls-2" d="M31.34,29.84,33.58,26c.22-.35.43-.66.65-1v0H31.54v-1h3.79v.75L33.1,28.52c-.2.37-.41.7-.63,1v0h2.9v1h-4Z" />
        <path className="cls-2" d="M36,29.84,38.29,26c.21-.35.42-.66.64-1v0H36.24v-1H40v.75L37.8,28.52c-.2.37-.41.7-.63,1v0h2.9v1H36Z" />
        <path className="cls-3" d="M13.21,10.19c.69.06,1.41.14,2.12.18a8.76,8.76,0,0,0,3.45-.27,3.8,3.8,0,0,0,1.69-1.44,10.31,10.31,0,0,1,1.08-1.35,3.12,3.12,0,0,1,1.74-.84,10.6,10.6,0,0,1,2.64,0,15.13,15.13,0,0,1,1.88.34c.08,0,.08.06.05.15L27.32,8.8c0,.1-.07.12-.16.1a15.77,15.77,0,0,0-1.91-.39A8.93,8.93,0,0,0,23,8.45a4.61,4.61,0,0,0-2.36.93A7.11,7.11,0,0,0,19.27,11,3.2,3.2,0,0,1,18,12.31a3.65,3.65,0,0,1-1,.22,12.31,12.31,0,0,1-3.48-.11l-1-.14c-.1,0-.13,0-.08-.19.17-.52.32-1.05.48-1.58C12.93,10.18,12.93,10.18,13.21,10.19Z" />
        <path className="cls-4" d="M15.27,3.83c.85.08,1.7.17,2.54.19a7.65,7.65,0,0,0,2.64-.31,3.82,3.82,0,0,0,1.69-1.45,10.92,10.92,0,0,1,1-1.29A3.23,3.23,0,0,1,25,.07a11,11,0,0,1,2.56,0c.3,0,.6.08.9.14a1.19,1.19,0,0,1,.7,1.54c-.05.21-.12.4-.17.61s-.08.16-.19.13a16.82,16.82,0,0,0-1.95-.39,8.59,8.59,0,0,0-2.15-.06,4.76,4.76,0,0,0-2.16.76,5.79,5.79,0,0,0-1.48,1.62c-.16.24-.33.49-.51.72a2.35,2.35,0,0,1-1.66.95,12,12,0,0,1-3.49,0c-.44-.06-.88-.13-1.33-.18-.09,0-.11,0-.07-.16.13-.41.24-.83.38-1.24A.81.81,0,0,1,15.27,3.83Z" />
        <path className="cls-5" d="M19,13a12.93,12.93,0,0,1-1.23,1.74,2.52,2.52,0,0,1-1.63.74,25.52,25.52,0,0,1-3.71,0c-.43,0-.73-.59-.59-1.14.08-.29.18-.58.26-.88,0-.08.06-.1.12-.1l1.47.12a17.87,17.87,0,0,0,4.07.1A2.1,2.1,0,0,0,19,13Z" />
        <path className="cls-6" d="M21.19,6c.38-.51.7-1,1.08-1.45A3.44,3.44,0,0,1,24.6,3.32a11.5,11.5,0,0,1,2.87.12c.4.06.79.13,1.18.21.11,0,.12.08.08.21l-.45,1.48c0,.11-.07.13-.16.11-.54-.12-1.08-.21-1.63-.28a12.54,12.54,0,0,0-2.29-.08,6,6,0,0,0-2.55.64A1.84,1.84,0,0,1,21.19,6Z" />
        <path className="cls-5" d="M19.56,12.36a12.72,12.72,0,0,1,1.06-1.44,3.33,3.33,0,0,1,2.28-1.2,11.23,11.23,0,0,1,3,.12c.38.06.77.13,1.15.21.09,0,.11,0,.07.16s-.11.38-.17.56a1.19,1.19,0,0,1-1.26.91,12.79,12.79,0,0,0-3.27-.18,5.41,5.41,0,0,0-2.44.66c-.12.07-.24.16-.35.24Z" />
        <path className="cls-7" d="M19.58,12.4s0,0-.07,0l0,0Z" />
        <path className="cls-8" d="M20.69,6.62h0l-.06.06,0,0,0,0a2.23,2.23,0,0,1-1,.48,9,9,0,0,1-2.37.09c-.6,0-1.21-.08-1.81-.14s-.89-.06-1.33-.12-.3,0-.42.33c-.17.57-.34,1.14-.51,1.73.22,0,.42,0,.63,0a26.08,26.08,0,0,0,4,0,2.51,2.51,0,0,0,1.69-.86,14.2,14.2,0,0,0,1.07-1.52h0l0-.06S20.71,6.64,20.69,6.62Z" />
      </svg>