<svg width="1057" height="337" viewBox="0 0 1057 337" fill="none" xmlns="http://www.w3.org/2000/svg">
<path d="M437.4 279.783L390.769 109.246H411.753L447.393 248.141H449.058L485.364 109.246H508.68L544.986 248.141H546.651L582.291 109.246H603.275L556.643 279.783H535.326L497.688 143.886H496.356L458.718 279.783H437.4ZM645.992 202.842V279.783H626.341V109.246H645.992V171.865H647.658C650.656 165.259 655.152 160.013 661.148 156.127C667.199 152.185 675.248 150.215 685.296 150.215C694.012 150.215 701.645 151.963 708.195 155.461C714.746 158.903 719.825 164.204 723.434 171.365C727.098 178.471 728.93 187.52 728.93 198.511V279.783H709.278V199.844C709.278 189.685 706.641 181.83 701.367 176.278C696.149 170.671 688.904 167.868 679.634 167.868C673.194 167.868 667.421 169.228 662.313 171.948C657.262 174.668 653.265 178.638 650.322 183.856C647.436 189.074 645.992 195.403 645.992 202.842ZM764.881 279.783V151.88H784.533V279.783H764.881ZM774.874 130.563C771.043 130.563 767.74 129.258 764.965 126.649C762.245 124.04 760.884 120.904 760.884 117.24C760.884 113.576 762.245 110.439 764.965 107.83C767.74 105.221 771.043 103.916 774.874 103.916C778.704 103.916 781.98 105.221 784.7 107.83C787.475 110.439 788.863 113.576 788.863 117.24C788.863 120.904 787.475 124.04 784.7 126.649C781.98 129.258 778.704 130.563 774.874 130.563ZM816.863 279.783V264.795L889.475 171.532V170.2H819.194V151.88H914.789V167.535L844.176 260.131V261.464H917.12V279.783H816.863ZM943.725 279.783V264.795L1016.34 171.532V170.2H946.057V151.88H1041.65V167.535L971.038 260.131V261.464H1043.98V279.783H943.725Z" fill="#E85509"/>
<path d="M84.3604 289.32C84.3604 250.32 84.3604 211.32 84.3604 172.32C122.69 172.32 161.03 172.32 199.36 172.32C199.36 153.65 199.36 134.99 199.36 116.32C219.03 116.32 238.69 116.32 258.36 116.32C258.36 173.99 258.36 231.65 258.36 289.32C238.69 289.32 219.03 289.32 199.36 289.32C199.36 269.99 199.36 250.65 199.36 231.32C180.69 231.32 162.03 231.32 143.36 231.32C143.36 250.65 143.36 269.99 143.36 289.32C123.7 289.32 104.03 289.32 84.3604 289.32Z" fill="black"/>
<path d="M142.36 116.32C142.28 108.59 142.62 67.5 175.36 34.32C207.87 1.37003 248.59 0.280026 258.36 0.320026C263.66 0.340026 321.2 1.54003 354.36 50.32C380.65 89 373.03 130.25 371.36 138.32C364.22 172.85 343.34 193.99 335.36 201.32C344.1 209.22 359.37 225.25 368.36 250.32C373.89 265.74 375.24 279.54 375.36 289.32C355.36 289.32 335.36 289.32 315.36 289.32C315.55 285.96 316.39 264.31 299.36 247.32C283.17 231.16 262.89 231.25 259.36 231.32C259.36 211.65 259.36 191.99 259.36 172.32C263.1 172.2 284.58 171.18 300.36 153.32C313.37 138.59 314.3 121.7 314.36 116.32C314.42 110.82 313.8 94.14 301.36 79.32C285.23 60.1 262.09 59.38 258.36 59.32C256.86 59.3 227.86 59.36 210.36 83.32C201.7 95.17 199.85 107.41 199.36 113.32C199.36 114.32 199.36 115.32 199.36 116.32C180.36 116.32 161.36 116.32 142.36 116.32Z" fill="#E85509"/>
<path d="M126.36 116.32H84.3604V158.32H126.36V116.32Z" fill="black"/>
<path d="M84.3601 74.3201H42.3601V116.32H84.3601V74.3201Z" fill="#E85509"/>
<path d="M42.3601 117.32H0.360107V159.32H42.3601V117.32Z" fill="#E85509"/>
</svg>
