<svg xmlns="http://www.w3.org/2000/svg" fill="none" viewBox="0 0 249 193">
  <path vector-effect="non-scaling-stroke" fill="#A5E4D4" stroke="#000" stroke-width=".9" d="M131.1 173.3C77 158.5 26.2 104.4 3 82.6l95.7-33.7c13.7 56.8 101.5 71.1 138.9 77.7L131 173.3Z"/>
  <path vector-effect="non-scaling-stroke" fill="#D7CFF9" stroke="#000" stroke-width=".9" d="M135 165C80.8 150.3 43.1 88 26 60.8L121.6 27c13.7 56.8 82.3 84.6 119.7 91.3L135 165Z"/>
  <path vector-effect="non-scaling-stroke" fill="#fff" stroke="#000" stroke-width=".9" d="M138 155.3C83.6 140.6 46 78.2 28.7 51l95.8-33.7c13.7 56.8 82.3 84.6 119.7 91.3l-106.4 46.6Z"/>
  <path vector-effect="non-scaling-stroke" stroke="#000" stroke-width=".9" d="m61.4 72.6 64.6-26M64.8 79l64.6-26M69.2 85.7l64.6-26M74.5 92l64.6-26m-50 41.1 64.6-26M95 113l64.5-26m-59.2 32.7 67.3-27.4m-61 33.3L176 97.4M73.8 49l24.3-9"/>
</svg>
