<svg xmlns="http://www.w3.org/2000/svg"
  xmlns:xlink="http://www.w3.org/1999/xlink" fill="none" viewBox="0 0 470 443">
  <defs>
    <path vector-effect="non-scaling-stroke" id="a" fill="#EAF5FF" d="M7.7 335.8a60.9 60.9 0 0 1 20.6-81l40.9-25.4-2.3-3.6a60.9 60.9 0 0 1 20.7-81l99.6-62a55 55 0 0 1 79.6 23.7l51.3-32a55 55 0 0 1 77.6 19.9 61 61 0 0 1-12.6 74.8 56.6 56.6 0 0 1 18.4 29.8c23.2-5.5 48 4.6 60.5 26.9a60.9 60.9 0 0 1-20.7 80.9l-149 92.7a55 55 0 0 1-82.5-31.2L182 385.5a55 55 0 0 1-77.6-19.8 59 59 0 0 1-6.6-18l-12.7 7.9a55 55 0 0 1-77.5-19.8Z"/>
    <path vector-effect="non-scaling-stroke" id="c" fill="#242C39" d="M90.3 133.6c-10.8 3.7-13.8 20.7-14 28.7a4 4 0 0 0-1.4.1c-.5-18.9 3.4-33.4 12.6-40 9.1-6.7 32-9.1 41.1 4.6 7.3 11 7.3 28 7.1 35.5-.7-.3-1.1-.2-1.8-.2-1.8-18.7-10.3-27.4-14.3-29.4-1.4 1.4-6.1 4.2-14.2 4.2a29 29 0 0 1-15.1-3.5Z"/>
    <path vector-effect="non-scaling-stroke" id="d" fill="#242C39" d="m76.4 162.3-.2.5.7.2v-.7h-.5Zm13.9-28.7.3-.4-.3-.2-.2.1.2.5Zm29.3-.7.2-.4-.3-.2-.3.3.4.3Zm14.3 29.4h-.5v.5h.5v-.5Zm1.8.2-.1.5.6.2v-.7h-.5Zm-7-35.5.4-.3-.5.3Zm-41.2-4.6-.3-.5.3.5Zm-12.6 40h-.5v.7l.7-.2-.2-.5Zm2 0c0-4 .8-10.2 3-15.9 2-5.6 5.4-10.6 10.5-12.5l-.3-.9c-5.6 2-9.1 7.3-11.2 13-2.2 5.9-3 12.2-3 16.2h1Zm13-28.4a31 31 0 0 0 15.5 3.6v-1c-8 0-13.2-2.3-14.8-3.4l-.6.8Zm15.5 3.6c8.2 0 13-2.8 14.5-4.3l-.7-.7c-1.2 1.3-5.8 4-13.8 4v1Zm14-4.2c3.8 1.9 12.3 10.4 14 29l1-.1c-1.8-18.9-10.4-27.7-14.6-29.8l-.4.9Zm14.5 29.4c.7 0 1 0 1.7.2l.3-1c-.8-.3-1.4-.2-2-.2v1Zm2.3-.3c.1-3.8.2-10-.7-16.5a46.8 46.8 0 0 0-6.4-19.3l-.9.6a45.8 45.8 0 0 1 6.3 18.8c.9 6.5.8 12.6.7 16.4h1Zm-7.1-35.8c-4.7-7-12.9-9.9-21-10.2-8-.3-16.2 2-21 5.4l.7.9a34.7 34.7 0 0 1 20.3-5.3c8 .3 15.7 3 20.1 9.8l.9-.6ZM87 122c-4.6 3.5-8 8.9-10 15.8s-3 15.3-2.7 24.7h1c-.2-9.4.6-17.7 2.7-24.4 2-6.8 5.2-12 9.7-15.2l-.6-.9Zm-12 41a3.5 3.5 0 0 1 1-.1h.1l.3-1H76a4.6 4.6 0 0 0-1.3.1l.3 1Z"/>
  </defs>
  <use xlink:href="#a"/>
  <mask id="b" width="470" height="343" x="0" y="66" maskUnits="userSpaceOnUse" style="mask-type:alpha">
    <use xlink:href="#a"/>
  </mask>
  <g fill="#5EB1E7" mask="url(#b)" opacity=".2">
    <circle cx="5.5" cy="68.5" r="2.5"/>
    <circle cx="22.5" cy="68.5" r="2.5"/>
    <circle cx="39.5" cy="68.5" r="2.5"/>
    <circle cx="56.5" cy="68.5" r="2.5"/>
    <circle cx="73.5" cy="68.5" r="2.5"/>
    <circle cx="90.5" cy="68.5" r="2.5"/>
    <circle cx="107.5" cy="68.5" r="2.5"/>
    <circle cx="124.5" cy="68.5" r="2.5"/>
    <circle cx="141.5" cy="68.5" r="2.5"/>
    <circle cx="158.5" cy="68.5" r="2.5"/>
    <circle cx="175.5" cy="68.5" r="2.5"/>
    <circle cx="192.5" cy="68.5" r="2.5"/>
    <circle cx="209.5" cy="68.5" r="2.5"/>
    <circle cx="226.5" cy="68.5" r="2.5"/>
    <circle cx="243.5" cy="68.5" r="2.5"/>
    <circle cx="260.5" cy="68.5" r="2.5"/>
    <circle cx="277.5" cy="68.5" r="2.5"/>
    <circle cx="294.5" cy="68.5" r="2.5"/>
    <circle cx="311.5" cy="68.5" r="2.5"/>
    <circle cx="328.5" cy="68.5" r="2.5"/>
    <circle cx="345.5" cy="68.5" r="2.5"/>
    <circle cx="362.5" cy="68.5" r="2.5"/>
    <circle cx="379.5" cy="68.5" r="2.5"/>
    <circle cx="396.5" cy="68.5" r="2.5"/>
    <circle cx="413.5" cy="68.5" r="2.5"/>
    <circle cx="430.5" cy="68.5" r="2.5"/>
    <circle cx="447.5" cy="68.5" r="2.5"/>
    <circle cx="464.5" cy="68.5" r="2.5"/>
    <circle cx="5.5" cy="85.5" r="2.5"/>
    <circle cx="22.5" cy="85.5" r="2.5"/>
    <circle cx="39.5" cy="85.5" r="2.5"/>
    <circle cx="56.5" cy="85.5" r="2.5"/>
    <circle cx="73.5" cy="85.5" r="2.5"/>
    <circle cx="90.5" cy="85.5" r="2.5"/>
    <circle cx="107.5" cy="85.5" r="2.5"/>
    <circle cx="124.5" cy="85.5" r="2.5"/>
    <circle cx="141.5" cy="85.5" r="2.5"/>
    <circle cx="158.5" cy="85.5" r="2.5"/>
    <circle cx="175.5" cy="85.5" r="2.5"/>
    <circle cx="192.5" cy="85.5" r="2.5"/>
    <circle cx="209.5" cy="85.5" r="2.5"/>
    <circle cx="226.5" cy="85.5" r="2.5"/>
    <circle cx="243.5" cy="85.5" r="2.5"/>
    <circle cx="260.5" cy="85.5" r="2.5"/>
    <circle cx="277.5" cy="85.5" r="2.5"/>
    <circle cx="294.5" cy="85.5" r="2.5"/>
    <circle cx="311.5" cy="85.5" r="2.5"/>
    <circle cx="328.5" cy="85.5" r="2.5"/>
    <circle cx="345.5" cy="85.5" r="2.5"/>
    <circle cx="362.5" cy="85.5" r="2.5"/>
    <circle cx="379.5" cy="85.5" r="2.5"/>
    <circle cx="396.5" cy="85.5" r="2.5"/>
    <circle cx="413.5" cy="85.5" r="2.5"/>
    <circle cx="430.5" cy="85.5" r="2.5"/>
    <circle cx="447.5" cy="85.5" r="2.5"/>
    <circle cx="464.5" cy="85.5" r="2.5"/>
    <circle cx="5.5" cy="102.5" r="2.5"/>
    <circle cx="22.5" cy="102.5" r="2.5"/>
    <circle cx="39.5" cy="102.5" r="2.5"/>
    <circle cx="56.5" cy="102.5" r="2.5"/>
    <circle cx="73.5" cy="102.5" r="2.5"/>
    <circle cx="90.5" cy="102.5" r="2.5"/>
    <circle cx="107.5" cy="102.5" r="2.5"/>
    <circle cx="124.5" cy="102.5" r="2.5"/>
    <circle cx="141.5" cy="102.5" r="2.5"/>
    <circle cx="158.5" cy="102.5" r="2.5"/>
    <circle cx="175.5" cy="102.5" r="2.5"/>
    <circle cx="192.5" cy="102.5" r="2.5"/>
    <circle cx="209.5" cy="102.5" r="2.5"/>
    <circle cx="226.5" cy="102.5" r="2.5"/>
    <circle cx="243.5" cy="102.5" r="2.5"/>
    <circle cx="260.5" cy="102.5" r="2.5"/>
    <circle cx="277.5" cy="102.5" r="2.5"/>
    <circle cx="294.5" cy="102.5" r="2.5"/>
    <circle cx="311.5" cy="102.5" r="2.5"/>
    <circle cx="328.5" cy="102.5" r="2.5"/>
    <circle cx="345.5" cy="102.5" r="2.5"/>
    <circle cx="362.5" cy="102.5" r="2.5"/>
    <circle cx="379.5" cy="102.5" r="2.5"/>
    <circle cx="396.5" cy="102.5" r="2.5"/>
    <circle cx="413.5" cy="102.5" r="2.5"/>
    <circle cx="430.5" cy="102.5" r="2.5"/>
    <circle cx="447.5" cy="102.5" r="2.5"/>
    <circle cx="464.5" cy="102.5" r="2.5"/>
    <circle cx="5.5" cy="119.5" r="2.5"/>
    <circle cx="22.5" cy="119.5" r="2.5"/>
    <circle cx="39.5" cy="119.5" r="2.5"/>
    <circle cx="56.5" cy="119.5" r="2.5"/>
    <circle cx="73.5" cy="119.5" r="2.5"/>
    <circle cx="90.5" cy="119.5" r="2.5"/>
    <circle cx="107.5" cy="119.5" r="2.5"/>
    <circle cx="124.5" cy="119.5" r="2.5"/>
    <circle cx="141.5" cy="119.5" r="2.5"/>
    <circle cx="158.5" cy="119.5" r="2.5"/>
    <circle cx="175.5" cy="119.5" r="2.5"/>
    <circle cx="192.5" cy="119.5" r="2.5"/>
    <circle cx="209.5" cy="119.5" r="2.5"/>
    <circle cx="226.5" cy="119.5" r="2.5"/>
    <circle cx="243.5" cy="119.5" r="2.5"/>
    <circle cx="260.5" cy="119.5" r="2.5"/>
    <circle cx="277.5" cy="119.5" r="2.5"/>
    <circle cx="294.5" cy="119.5" r="2.5"/>
    <circle cx="311.5" cy="119.5" r="2.5"/>
    <circle cx="328.5" cy="119.5" r="2.5"/>
    <circle cx="345.5" cy="119.5" r="2.5"/>
    <circle cx="362.5" cy="119.5" r="2.5"/>
    <circle cx="379.5" cy="119.5" r="2.5"/>
    <circle cx="396.5" cy="119.5" r="2.5"/>
    <circle cx="413.5" cy="119.5" r="2.5"/>
    <circle cx="430.5" cy="119.5" r="2.5"/>
    <circle cx="447.5" cy="119.5" r="2.5"/>
    <circle cx="464.5" cy="119.5" r="2.5"/>
    <circle cx="5.5" cy="136.5" r="2.5"/>
    <circle cx="22.5" cy="136.5" r="2.5"/>
    <circle cx="39.5" cy="136.5" r="2.5"/>
    <circle cx="56.5" cy="136.5" r="2.5"/>
    <circle cx="73.5" cy="136.5" r="2.5"/>
    <circle cx="90.5" cy="136.5" r="2.5"/>
    <circle cx="107.5" cy="136.5" r="2.5"/>
    <circle cx="124.5" cy="136.5" r="2.5"/>
    <circle cx="141.5" cy="136.5" r="2.5"/>
    <circle cx="158.5" cy="136.5" r="2.5"/>
    <circle cx="175.5" cy="136.5" r="2.5"/>
    <circle cx="192.5" cy="136.5" r="2.5"/>
    <circle cx="209.5" cy="136.5" r="2.5"/>
    <circle cx="226.5" cy="136.5" r="2.5"/>
    <circle cx="243.5" cy="136.5" r="2.5"/>
    <circle cx="260.5" cy="136.5" r="2.5"/>
    <circle cx="277.5" cy="136.5" r="2.5"/>
    <circle cx="294.5" cy="136.5" r="2.5"/>
    <circle cx="311.5" cy="136.5" r="2.5"/>
    <circle cx="328.5" cy="136.5" r="2.5"/>
    <circle cx="345.5" cy="136.5" r="2.5"/>
    <circle cx="362.5" cy="136.5" r="2.5"/>
    <circle cx="379.5" cy="136.5" r="2.5"/>
    <circle cx="396.5" cy="136.5" r="2.5"/>
    <circle cx="413.5" cy="136.5" r="2.5"/>
    <circle cx="430.5" cy="136.5" r="2.5"/>
    <circle cx="447.5" cy="136.5" r="2.5"/>
    <circle cx="464.5" cy="136.5" r="2.5"/>
    <circle cx="5.5" cy="153.5" r="2.5"/>
    <circle cx="22.5" cy="153.5" r="2.5"/>
    <circle cx="39.5" cy="153.5" r="2.5"/>
    <circle cx="56.5" cy="153.5" r="2.5"/>
    <circle cx="73.5" cy="153.5" r="2.5"/>
    <circle cx="90.5" cy="153.5" r="2.5"/>
    <circle cx="107.5" cy="153.5" r="2.5"/>
    <circle cx="124.5" cy="153.5" r="2.5"/>
    <circle cx="141.5" cy="153.5" r="2.5"/>
    <circle cx="158.5" cy="153.5" r="2.5"/>
    <circle cx="175.5" cy="153.5" r="2.5"/>
    <circle cx="192.5" cy="153.5" r="2.5"/>
    <circle cx="209.5" cy="153.5" r="2.5"/>
    <circle cx="226.5" cy="153.5" r="2.5"/>
    <circle cx="243.5" cy="153.5" r="2.5"/>
    <circle cx="260.5" cy="153.5" r="2.5"/>
    <circle cx="277.5" cy="153.5" r="2.5"/>
    <circle cx="294.5" cy="153.5" r="2.5"/>
    <circle cx="311.5" cy="153.5" r="2.5"/>
    <circle cx="328.5" cy="153.5" r="2.5"/>
    <circle cx="345.5" cy="153.5" r="2.5"/>
    <circle cx="362.5" cy="153.5" r="2.5"/>
    <circle cx="379.5" cy="153.5" r="2.5"/>
    <circle cx="396.5" cy="153.5" r="2.5"/>
    <circle cx="413.5" cy="153.5" r="2.5"/>
    <circle cx="430.5" cy="153.5" r="2.5"/>
    <circle cx="447.5" cy="153.5" r="2.5"/>
    <circle cx="464.5" cy="153.5" r="2.5"/>
    <circle cx="5.5" cy="170.5" r="2.5"/>
    <circle cx="22.5" cy="170.5" r="2.5"/>
    <circle cx="39.5" cy="170.5" r="2.5"/>
    <circle cx="56.5" cy="170.5" r="2.5"/>
    <circle cx="73.5" cy="170.5" r="2.5"/>
    <circle cx="90.5" cy="170.5" r="2.5"/>
    <circle cx="107.5" cy="170.5" r="2.5"/>
    <circle cx="124.5" cy="170.5" r="2.5"/>
    <circle cx="141.5" cy="170.5" r="2.5"/>
    <circle cx="158.5" cy="170.5" r="2.5"/>
    <circle cx="175.5" cy="170.5" r="2.5"/>
    <circle cx="192.5" cy="170.5" r="2.5"/>
    <circle cx="209.5" cy="170.5" r="2.5"/>
    <circle cx="226.5" cy="170.5" r="2.5"/>
    <circle cx="243.5" cy="170.5" r="2.5"/>
    <circle cx="260.5" cy="170.5" r="2.5"/>
    <circle cx="277.5" cy="170.5" r="2.5"/>
    <circle cx="294.5" cy="170.5" r="2.5"/>
    <circle cx="311.5" cy="170.5" r="2.5"/>
    <circle cx="328.5" cy="170.5" r="2.5"/>
    <circle cx="345.5" cy="170.5" r="2.5"/>
    <circle cx="362.5" cy="170.5" r="2.5"/>
    <circle cx="379.5" cy="170.5" r="2.5"/>
    <circle cx="396.5" cy="170.5" r="2.5"/>
    <circle cx="413.5" cy="170.5" r="2.5"/>
    <circle cx="430.5" cy="170.5" r="2.5"/>
    <circle cx="447.5" cy="170.5" r="2.5"/>
    <circle cx="464.5" cy="170.5" r="2.5"/>
    <circle cx="5.5" cy="187.5" r="2.5"/>
    <circle cx="22.5" cy="187.5" r="2.5"/>
    <circle cx="39.5" cy="187.5" r="2.5"/>
    <circle cx="56.5" cy="187.5" r="2.5"/>
    <circle cx="73.5" cy="187.5" r="2.5"/>
    <circle cx="90.5" cy="187.5" r="2.5"/>
    <circle cx="107.5" cy="187.5" r="2.5"/>
    <circle cx="124.5" cy="187.5" r="2.5"/>
    <circle cx="141.5" cy="187.5" r="2.5"/>
    <circle cx="158.5" cy="187.5" r="2.5"/>
    <circle cx="175.5" cy="187.5" r="2.5"/>
    <circle cx="192.5" cy="187.5" r="2.5"/>
    <circle cx="209.5" cy="187.5" r="2.5"/>
    <circle cx="226.5" cy="187.5" r="2.5"/>
    <circle cx="243.5" cy="187.5" r="2.5"/>
    <circle cx="260.5" cy="187.5" r="2.5"/>
    <circle cx="277.5" cy="187.5" r="2.5"/>
    <circle cx="294.5" cy="187.5" r="2.5"/>
    <circle cx="311.5" cy="187.5" r="2.5"/>
    <circle cx="328.5" cy="187.5" r="2.5"/>
    <circle cx="345.5" cy="187.5" r="2.5"/>
    <circle cx="362.5" cy="187.5" r="2.5"/>
    <circle cx="379.5" cy="187.5" r="2.5"/>
    <circle cx="396.5" cy="187.5" r="2.5"/>
    <circle cx="413.5" cy="187.5" r="2.5"/>
    <circle cx="430.5" cy="187.5" r="2.5"/>
    <circle cx="447.5" cy="187.5" r="2.5"/>
    <circle cx="464.5" cy="187.5" r="2.5"/>
    <circle cx="5.5" cy="204.5" r="2.5"/>
    <circle cx="22.5" cy="204.5" r="2.5"/>
    <circle cx="39.5" cy="204.5" r="2.5"/>
    <circle cx="56.5" cy="204.5" r="2.5"/>
    <circle cx="73.5" cy="204.5" r="2.5"/>
    <circle cx="90.5" cy="204.5" r="2.5"/>
    <circle cx="107.5" cy="204.5" r="2.5"/>
    <circle cx="124.5" cy="204.5" r="2.5"/>
    <circle cx="141.5" cy="204.5" r="2.5"/>
    <circle cx="158.5" cy="204.5" r="2.5"/>
    <circle cx="175.5" cy="204.5" r="2.5"/>
    <circle cx="192.5" cy="204.5" r="2.5"/>
    <circle cx="209.5" cy="204.5" r="2.5"/>
    <circle cx="226.5" cy="204.5" r="2.5"/>
    <circle cx="243.5" cy="204.5" r="2.5"/>
    <circle cx="260.5" cy="204.5" r="2.5"/>
    <circle cx="277.5" cy="204.5" r="2.5"/>
    <circle cx="294.5" cy="204.5" r="2.5"/>
    <circle cx="311.5" cy="204.5" r="2.5"/>
    <circle cx="328.5" cy="204.5" r="2.5"/>
    <circle cx="345.5" cy="204.5" r="2.5"/>
    <circle cx="362.5" cy="204.5" r="2.5"/>
    <circle cx="379.5" cy="204.5" r="2.5"/>
    <circle cx="396.5" cy="204.5" r="2.5"/>
    <circle cx="413.5" cy="204.5" r="2.5"/>
    <circle cx="430.5" cy="204.5" r="2.5"/>
    <circle cx="447.5" cy="204.5" r="2.5"/>
    <circle cx="464.5" cy="204.5" r="2.5"/>
    <circle cx="5.5" cy="221.5" r="2.5"/>
    <circle cx="22.5" cy="221.5" r="2.5"/>
    <circle cx="39.5" cy="221.5" r="2.5"/>
    <circle cx="56.5" cy="221.5" r="2.5"/>
    <circle cx="73.5" cy="221.5" r="2.5"/>
    <circle cx="90.5" cy="221.5" r="2.5"/>
    <circle cx="107.5" cy="221.5" r="2.5"/>
    <circle cx="124.5" cy="221.5" r="2.5"/>
    <circle cx="141.5" cy="221.5" r="2.5"/>
    <circle cx="158.5" cy="221.5" r="2.5"/>
    <circle cx="175.5" cy="221.5" r="2.5"/>
    <circle cx="192.5" cy="221.5" r="2.5"/>
    <circle cx="209.5" cy="221.5" r="2.5"/>
    <circle cx="226.5" cy="221.5" r="2.5"/>
    <circle cx="243.5" cy="221.5" r="2.5"/>
    <circle cx="260.5" cy="221.5" r="2.5"/>
    <circle cx="277.5" cy="221.5" r="2.5"/>
    <circle cx="294.5" cy="221.5" r="2.5"/>
    <circle cx="311.5" cy="221.5" r="2.5"/>
    <circle cx="328.5" cy="221.5" r="2.5"/>
    <circle cx="345.5" cy="221.5" r="2.5"/>
    <circle cx="362.5" cy="221.5" r="2.5"/>
    <circle cx="379.5" cy="221.5" r="2.5"/>
    <circle cx="396.5" cy="221.5" r="2.5"/>
    <circle cx="413.5" cy="221.5" r="2.5"/>
    <circle cx="430.5" cy="221.5" r="2.5"/>
    <circle cx="447.5" cy="221.5" r="2.5"/>
    <circle cx="464.5" cy="221.5" r="2.5"/>
    <circle cx="5.5" cy="238.5" r="2.5"/>
    <circle cx="22.5" cy="238.5" r="2.5"/>
    <circle cx="39.5" cy="238.5" r="2.5"/>
    <circle cx="56.5" cy="238.5" r="2.5"/>
    <circle cx="73.5" cy="238.5" r="2.5"/>
    <circle cx="90.5" cy="238.5" r="2.5"/>
    <circle cx="107.5" cy="238.5" r="2.5"/>
    <circle cx="124.5" cy="238.5" r="2.5"/>
    <circle cx="141.5" cy="238.5" r="2.5"/>
    <circle cx="158.5" cy="238.5" r="2.5"/>
    <circle cx="175.5" cy="238.5" r="2.5"/>
    <circle cx="192.5" cy="238.5" r="2.5"/>
    <circle cx="209.5" cy="238.5" r="2.5"/>
    <circle cx="226.5" cy="238.5" r="2.5"/>
    <circle cx="243.5" cy="238.5" r="2.5"/>
    <circle cx="260.5" cy="238.5" r="2.5"/>
    <circle cx="277.5" cy="238.5" r="2.5"/>
    <circle cx="294.5" cy="238.5" r="2.5"/>
    <circle cx="311.5" cy="238.5" r="2.5"/>
    <circle cx="328.5" cy="238.5" r="2.5"/>
    <circle cx="345.5" cy="238.5" r="2.5"/>
    <circle cx="362.5" cy="238.5" r="2.5"/>
    <circle cx="379.5" cy="238.5" r="2.5"/>
    <circle cx="396.5" cy="238.5" r="2.5"/>
    <circle cx="413.5" cy="238.5" r="2.5"/>
    <circle cx="430.5" cy="238.5" r="2.5"/>
    <circle cx="447.5" cy="238.5" r="2.5"/>
    <circle cx="464.5" cy="238.5" r="2.5"/>
    <circle cx="5.5" cy="255.5" r="2.5"/>
    <circle cx="22.5" cy="255.5" r="2.5"/>
    <circle cx="39.5" cy="255.5" r="2.5"/>
    <circle cx="56.5" cy="255.5" r="2.5"/>
    <circle cx="73.5" cy="255.5" r="2.5"/>
    <circle cx="90.5" cy="255.5" r="2.5"/>
    <circle cx="107.5" cy="255.5" r="2.5"/>
    <circle cx="124.5" cy="255.5" r="2.5"/>
    <circle cx="141.5" cy="255.5" r="2.5"/>
    <circle cx="158.5" cy="255.5" r="2.5"/>
    <circle cx="175.5" cy="255.5" r="2.5"/>
    <circle cx="192.5" cy="255.5" r="2.5"/>
    <circle cx="209.5" cy="255.5" r="2.5"/>
    <circle cx="226.5" cy="255.5" r="2.5"/>
    <circle cx="243.5" cy="255.5" r="2.5"/>
    <circle cx="260.5" cy="255.5" r="2.5"/>
    <circle cx="277.5" cy="255.5" r="2.5"/>
    <circle cx="294.5" cy="255.5" r="2.5"/>
    <circle cx="311.5" cy="255.5" r="2.5"/>
    <circle cx="328.5" cy="255.5" r="2.5"/>
    <circle cx="345.5" cy="255.5" r="2.5"/>
    <circle cx="362.5" cy="255.5" r="2.5"/>
    <circle cx="379.5" cy="255.5" r="2.5"/>
    <circle cx="396.5" cy="255.5" r="2.5"/>
    <circle cx="413.5" cy="255.5" r="2.5"/>
    <circle cx="430.5" cy="255.5" r="2.5"/>
    <circle cx="447.5" cy="255.5" r="2.5"/>
    <circle cx="464.5" cy="255.5" r="2.5"/>
    <circle cx="5.5" cy="272.5" r="2.5"/>
    <circle cx="22.5" cy="272.5" r="2.5"/>
    <circle cx="39.5" cy="272.5" r="2.5"/>
    <circle cx="56.5" cy="272.5" r="2.5"/>
    <circle cx="73.5" cy="272.5" r="2.5"/>
    <circle cx="90.5" cy="272.5" r="2.5"/>
    <circle cx="107.5" cy="272.5" r="2.5"/>
    <circle cx="124.5" cy="272.5" r="2.5"/>
    <circle cx="141.5" cy="272.5" r="2.5"/>
    <circle cx="158.5" cy="272.5" r="2.5"/>
    <circle cx="175.5" cy="272.5" r="2.5"/>
    <circle cx="192.5" cy="272.5" r="2.5"/>
    <circle cx="209.5" cy="272.5" r="2.5"/>
    <circle cx="226.5" cy="272.5" r="2.5"/>
    <circle cx="243.5" cy="272.5" r="2.5"/>
    <circle cx="260.5" cy="272.5" r="2.5"/>
    <circle cx="277.5" cy="272.5" r="2.5"/>
    <circle cx="294.5" cy="272.5" r="2.5"/>
    <circle cx="311.5" cy="272.5" r="2.5"/>
    <circle cx="328.5" cy="272.5" r="2.5"/>
    <circle cx="345.5" cy="272.5" r="2.5"/>
    <circle cx="362.5" cy="272.5" r="2.5"/>
    <circle cx="379.5" cy="272.5" r="2.5"/>
    <circle cx="396.5" cy="272.5" r="2.5"/>
    <circle cx="413.5" cy="272.5" r="2.5"/>
    <circle cx="430.5" cy="272.5" r="2.5"/>
    <circle cx="447.5" cy="272.5" r="2.5"/>
    <circle cx="464.5" cy="272.5" r="2.5"/>
    <circle cx="5.5" cy="289.5" r="2.5"/>
    <circle cx="22.5" cy="289.5" r="2.5"/>
    <circle cx="39.5" cy="289.5" r="2.5"/>
    <circle cx="56.5" cy="289.5" r="2.5"/>
    <circle cx="73.5" cy="289.5" r="2.5"/>
    <circle cx="90.5" cy="289.5" r="2.5"/>
    <circle cx="107.5" cy="289.5" r="2.5"/>
    <circle cx="124.5" cy="289.5" r="2.5"/>
    <circle cx="141.5" cy="289.5" r="2.5"/>
    <circle cx="158.5" cy="289.5" r="2.5"/>
    <circle cx="175.5" cy="289.5" r="2.5"/>
    <circle cx="192.5" cy="289.5" r="2.5"/>
    <circle cx="209.5" cy="289.5" r="2.5"/>
    <circle cx="226.5" cy="289.5" r="2.5"/>
    <circle cx="243.5" cy="289.5" r="2.5"/>
    <circle cx="260.5" cy="289.5" r="2.5"/>
    <circle cx="277.5" cy="289.5" r="2.5"/>
    <circle cx="294.5" cy="289.5" r="2.5"/>
    <circle cx="311.5" cy="289.5" r="2.5"/>
    <circle cx="328.5" cy="289.5" r="2.5"/>
    <circle cx="345.5" cy="289.5" r="2.5"/>
    <circle cx="362.5" cy="289.5" r="2.5"/>
    <circle cx="379.5" cy="289.5" r="2.5"/>
    <circle cx="396.5" cy="289.5" r="2.5"/>
    <circle cx="413.5" cy="289.5" r="2.5"/>
    <circle cx="430.5" cy="289.5" r="2.5"/>
    <circle cx="447.5" cy="289.5" r="2.5"/>
    <circle cx="464.5" cy="289.5" r="2.5"/>
    <circle cx="5.5" cy="306.5" r="2.5"/>
    <circle cx="22.5" cy="306.5" r="2.5"/>
    <circle cx="39.5" cy="306.5" r="2.5"/>
    <circle cx="56.5" cy="306.5" r="2.5"/>
    <circle cx="73.5" cy="306.5" r="2.5"/>
    <circle cx="90.5" cy="306.5" r="2.5"/>
    <circle cx="107.5" cy="306.5" r="2.5"/>
    <circle cx="124.5" cy="306.5" r="2.5"/>
    <circle cx="141.5" cy="306.5" r="2.5"/>
    <circle cx="158.5" cy="306.5" r="2.5"/>
    <circle cx="175.5" cy="306.5" r="2.5"/>
    <circle cx="192.5" cy="306.5" r="2.5"/>
    <circle cx="209.5" cy="306.5" r="2.5"/>
    <circle cx="226.5" cy="306.5" r="2.5"/>
    <circle cx="243.5" cy="306.5" r="2.5"/>
    <circle cx="260.5" cy="306.5" r="2.5"/>
    <circle cx="277.5" cy="306.5" r="2.5"/>
    <circle cx="294.5" cy="306.5" r="2.5"/>
    <circle cx="311.5" cy="306.5" r="2.5"/>
    <circle cx="328.5" cy="306.5" r="2.5"/>
    <circle cx="345.5" cy="306.5" r="2.5"/>
    <circle cx="362.5" cy="306.5" r="2.5"/>
    <circle cx="379.5" cy="306.5" r="2.5"/>
    <circle cx="396.5" cy="306.5" r="2.5"/>
    <circle cx="413.5" cy="306.5" r="2.5"/>
    <circle cx="430.5" cy="306.5" r="2.5"/>
    <circle cx="447.5" cy="306.5" r="2.5"/>
    <circle cx="464.5" cy="306.5" r="2.5"/>
    <circle cx="5.5" cy="323.5" r="2.5"/>
    <circle cx="22.5" cy="323.5" r="2.5"/>
    <circle cx="39.5" cy="323.5" r="2.5"/>
    <circle cx="56.5" cy="323.5" r="2.5"/>
    <circle cx="73.5" cy="323.5" r="2.5"/>
    <circle cx="90.5" cy="323.5" r="2.5"/>
    <circle cx="107.5" cy="323.5" r="2.5"/>
    <circle cx="124.5" cy="323.5" r="2.5"/>
    <circle cx="141.5" cy="323.5" r="2.5"/>
    <circle cx="158.5" cy="323.5" r="2.5"/>
    <circle cx="175.5" cy="323.5" r="2.5"/>
    <circle cx="192.5" cy="323.5" r="2.5"/>
    <circle cx="209.5" cy="323.5" r="2.5"/>
    <circle cx="226.5" cy="323.5" r="2.5"/>
    <circle cx="243.5" cy="323.5" r="2.5"/>
    <circle cx="260.5" cy="323.5" r="2.5"/>
    <circle cx="277.5" cy="323.5" r="2.5"/>
    <circle cx="294.5" cy="323.5" r="2.5"/>
    <circle cx="311.5" cy="323.5" r="2.5"/>
    <circle cx="328.5" cy="323.5" r="2.5"/>
    <circle cx="345.5" cy="323.5" r="2.5"/>
    <circle cx="362.5" cy="323.5" r="2.5"/>
    <circle cx="379.5" cy="323.5" r="2.5"/>
    <circle cx="396.5" cy="323.5" r="2.5"/>
    <circle cx="413.5" cy="323.5" r="2.5"/>
    <circle cx="430.5" cy="323.5" r="2.5"/>
    <circle cx="447.5" cy="323.5" r="2.5"/>
    <circle cx="464.5" cy="323.5" r="2.5"/>
    <circle cx="5.5" cy="340.5" r="2.5"/>
    <circle cx="22.5" cy="340.5" r="2.5"/>
    <circle cx="39.5" cy="340.5" r="2.5"/>
    <circle cx="56.5" cy="340.5" r="2.5"/>
    <circle cx="73.5" cy="340.5" r="2.5"/>
    <circle cx="90.5" cy="340.5" r="2.5"/>
    <circle cx="107.5" cy="340.5" r="2.5"/>
    <circle cx="124.5" cy="340.5" r="2.5"/>
    <circle cx="141.5" cy="340.5" r="2.5"/>
    <circle cx="158.5" cy="340.5" r="2.5"/>
    <circle cx="175.5" cy="340.5" r="2.5"/>
    <circle cx="192.5" cy="340.5" r="2.5"/>
    <circle cx="209.5" cy="340.5" r="2.5"/>
    <circle cx="226.5" cy="340.5" r="2.5"/>
    <circle cx="243.5" cy="340.5" r="2.5"/>
    <circle cx="260.5" cy="340.5" r="2.5"/>
    <circle cx="277.5" cy="340.5" r="2.5"/>
    <circle cx="294.5" cy="340.5" r="2.5"/>
    <circle cx="311.5" cy="340.5" r="2.5"/>
    <circle cx="328.5" cy="340.5" r="2.5"/>
    <circle cx="345.5" cy="340.5" r="2.5"/>
    <circle cx="362.5" cy="340.5" r="2.5"/>
    <circle cx="379.5" cy="340.5" r="2.5"/>
    <circle cx="396.5" cy="340.5" r="2.5"/>
    <circle cx="413.5" cy="340.5" r="2.5"/>
    <circle cx="430.5" cy="340.5" r="2.5"/>
    <circle cx="447.5" cy="340.5" r="2.5"/>
    <circle cx="464.5" cy="340.5" r="2.5"/>
    <circle cx="5.5" cy="357.5" r="2.5"/>
    <circle cx="22.5" cy="357.5" r="2.5"/>
    <circle cx="39.5" cy="357.5" r="2.5"/>
    <circle cx="56.5" cy="357.5" r="2.5"/>
    <circle cx="73.5" cy="357.5" r="2.5"/>
    <circle cx="90.5" cy="357.5" r="2.5"/>
    <circle cx="107.5" cy="357.5" r="2.5"/>
    <circle cx="124.5" cy="357.5" r="2.5"/>
    <circle cx="141.5" cy="357.5" r="2.5"/>
    <circle cx="158.5" cy="357.5" r="2.5"/>
    <circle cx="175.5" cy="357.5" r="2.5"/>
    <circle cx="192.5" cy="357.5" r="2.5"/>
    <circle cx="209.5" cy="357.5" r="2.5"/>
    <circle cx="226.5" cy="357.5" r="2.5"/>
    <circle cx="243.5" cy="357.5" r="2.5"/>
    <circle cx="260.5" cy="357.5" r="2.5"/>
    <circle cx="277.5" cy="357.5" r="2.5"/>
    <circle cx="294.5" cy="357.5" r="2.5"/>
    <circle cx="311.5" cy="357.5" r="2.5"/>
    <circle cx="328.5" cy="357.5" r="2.5"/>
    <circle cx="345.5" cy="357.5" r="2.5"/>
    <circle cx="362.5" cy="357.5" r="2.5"/>
    <circle cx="379.5" cy="357.5" r="2.5"/>
    <circle cx="396.5" cy="357.5" r="2.5"/>
    <circle cx="413.5" cy="357.5" r="2.5"/>
    <circle cx="430.5" cy="357.5" r="2.5"/>
    <circle cx="447.5" cy="357.5" r="2.5"/>
    <circle cx="464.5" cy="357.5" r="2.5"/>
    <circle cx="5.5" cy="374.5" r="2.5"/>
    <circle cx="22.5" cy="374.5" r="2.5"/>
    <circle cx="39.5" cy="374.5" r="2.5"/>
    <circle cx="56.5" cy="374.5" r="2.5"/>
    <circle cx="73.5" cy="374.5" r="2.5"/>
    <circle cx="90.5" cy="374.5" r="2.5"/>
    <circle cx="107.5" cy="374.5" r="2.5"/>
    <circle cx="124.5" cy="374.5" r="2.5"/>
    <circle cx="141.5" cy="374.5" r="2.5"/>
    <circle cx="158.5" cy="374.5" r="2.5"/>
    <circle cx="175.5" cy="374.5" r="2.5"/>
    <circle cx="192.5" cy="374.5" r="2.5"/>
    <circle cx="209.5" cy="374.5" r="2.5"/>
    <circle cx="226.5" cy="374.5" r="2.5"/>
    <circle cx="243.5" cy="374.5" r="2.5"/>
    <circle cx="260.5" cy="374.5" r="2.5"/>
    <circle cx="277.5" cy="374.5" r="2.5"/>
    <circle cx="294.5" cy="374.5" r="2.5"/>
    <circle cx="311.5" cy="374.5" r="2.5"/>
    <circle cx="328.5" cy="374.5" r="2.5"/>
    <circle cx="345.5" cy="374.5" r="2.5"/>
    <circle cx="362.5" cy="374.5" r="2.5"/>
    <circle cx="379.5" cy="374.5" r="2.5"/>
    <circle cx="396.5" cy="374.5" r="2.5"/>
    <circle cx="413.5" cy="374.5" r="2.5"/>
    <circle cx="430.5" cy="374.5" r="2.5"/>
    <circle cx="447.5" cy="374.5" r="2.5"/>
    <circle cx="464.5" cy="374.5" r="2.5"/>
    <circle cx="5.5" cy="391.5" r="2.5"/>
    <circle cx="22.5" cy="391.5" r="2.5"/>
    <circle cx="39.5" cy="391.5" r="2.5"/>
    <circle cx="56.5" cy="391.5" r="2.5"/>
    <circle cx="73.5" cy="391.5" r="2.5"/>
    <circle cx="90.5" cy="391.5" r="2.5"/>
    <circle cx="107.5" cy="391.5" r="2.5"/>
    <circle cx="124.5" cy="391.5" r="2.5"/>
    <circle cx="141.5" cy="391.5" r="2.5"/>
    <circle cx="158.5" cy="391.5" r="2.5"/>
    <circle cx="175.5" cy="391.5" r="2.5"/>
    <circle cx="192.5" cy="391.5" r="2.5"/>
    <circle cx="209.5" cy="391.5" r="2.5"/>
    <circle cx="226.5" cy="391.5" r="2.5"/>
    <circle cx="243.5" cy="391.5" r="2.5"/>
    <circle cx="260.5" cy="391.5" r="2.5"/>
    <circle cx="277.5" cy="391.5" r="2.5"/>
    <circle cx="294.5" cy="391.5" r="2.5"/>
    <circle cx="311.5" cy="391.5" r="2.5"/>
    <circle cx="328.5" cy="391.5" r="2.5"/>
    <circle cx="345.5" cy="391.5" r="2.5"/>
    <circle cx="362.5" cy="391.5" r="2.5"/>
    <circle cx="379.5" cy="391.5" r="2.5"/>
    <circle cx="396.5" cy="391.5" r="2.5"/>
    <circle cx="413.5" cy="391.5" r="2.5"/>
    <circle cx="430.5" cy="391.5" r="2.5"/>
    <circle cx="447.5" cy="391.5" r="2.5"/>
    <circle cx="464.5" cy="391.5" r="2.5"/>
    <circle cx="5.5" cy="408.5" r="2.5"/>
    <circle cx="22.5" cy="408.5" r="2.5"/>
    <circle cx="39.5" cy="408.5" r="2.5"/>
    <circle cx="56.5" cy="408.5" r="2.5"/>
    <circle cx="73.5" cy="408.5" r="2.5"/>
    <circle cx="90.5" cy="408.5" r="2.5"/>
    <circle cx="107.5" cy="408.5" r="2.5"/>
    <circle cx="124.5" cy="408.5" r="2.5"/>
    <circle cx="141.5" cy="408.5" r="2.5"/>
    <circle cx="158.5" cy="408.5" r="2.5"/>
    <circle cx="175.5" cy="408.5" r="2.5"/>
    <circle cx="192.5" cy="408.5" r="2.5"/>
    <circle cx="209.5" cy="408.5" r="2.5"/>
    <circle cx="226.5" cy="408.5" r="2.5"/>
    <circle cx="243.5" cy="408.5" r="2.5"/>
    <circle cx="260.5" cy="408.5" r="2.5"/>
    <circle cx="277.5" cy="408.5" r="2.5"/>
    <circle cx="294.5" cy="408.5" r="2.5"/>
    <circle cx="311.5" cy="408.5" r="2.5"/>
    <circle cx="328.5" cy="408.5" r="2.5"/>
    <circle cx="345.5" cy="408.5" r="2.5"/>
    <circle cx="362.5" cy="408.5" r="2.5"/>
    <circle cx="379.5" cy="408.5" r="2.5"/>
    <circle cx="396.5" cy="408.5" r="2.5"/>
    <circle cx="413.5" cy="408.5" r="2.5"/>
    <circle cx="430.5" cy="408.5" r="2.5"/>
    <circle cx="447.5" cy="408.5" r="2.5"/>
    <circle cx="464.5" cy="408.5" r="2.5"/>
  </g>
  <path vector-effect="non-scaling-stroke" fill="#D7CFF9" stroke="#242C39" stroke-linecap="round" d="M107.5 249.5a74 74 0 1 1 0-148 74 74 0 0 1 0 148Z"/>
  <path vector-effect="non-scaling-stroke" fill="#F1A981" stroke="#242C39" stroke-linecap="round" stroke-miterlimit="10" d="m137.8 173.6 1-5.9a4.5 4.5 0 0 0-3.6-5.3 4.6 4.6 0 0 0-5.3 3.6l-1.2 5.9a4.5 4.5 0 0 0 3.6 5.3c2.5.5 5-1.1 5.5-3.6Z"/>
  <use xlink:href="#c"/>
  <use xlink:href="#d"/>
  <path vector-effect="non-scaling-stroke" fill="#AD5700" stroke="#242C39" stroke-linecap="round" stroke-miterlimit="10" d="M125 170.5a177 177 0 0 0 3 40.8c-4.8 4.2-8.7 22-21.5 22-12.1 0-18.4-16-22.7-22 5.6-11 3-28 1.8-40.1 9.3.8 30.5.1 39.3-.7Z"/>
  <path vector-effect="non-scaling-stroke" fill="#8A4500" d="M87 202.5c1-5.5.5-12.5.5-15.5.8.8 15.2 10.3 21.5 12.5-11.5 2-17-2-22 3Z"/>
  <path vector-effect="non-scaling-stroke" fill="#AD5700" stroke="#242C39" stroke-linecap="round" stroke-miterlimit="10" d="m73.3 173.6-1.5-5.7c-.7-2.4.8-4.9 3.2-5.4 2.4-.6 4.9.8 5.5 3.3l1.5 5.7c.7 2.4-.8 4.9-3.2 5.5-2.4.6-4.9-1-5.5-3.4Z"/>
  <path vector-effect="non-scaling-stroke" stroke="#242C39" stroke-linecap="round" stroke-miterlimit="10" d="M76.9 168.5c.1.7-.5 1.2-.8 1.8-.2.4-.2.9 0 1.3 0 .4.3.8.5 1.1l1 1.9m-4.9-8.5c.2-.3.4-.6.8-.8l1.2-.3c.4 0 .8.2 1.2.4.3.2.6.5.7.8"/>
  <path vector-effect="non-scaling-stroke" fill="#AD5700" stroke="#242C39" stroke-linecap="round" stroke-miterlimit="10" d="m137.8 173.6 1-5.9a4.5 4.5 0 0 0-3.6-5.3 4.6 4.6 0 0 0-5.3 3.6l-1.2 5.9a4.5 4.5 0 0 0 3.6 5.3c2.5.5 5-1.1 5.5-3.6Z"/>
  <path vector-effect="non-scaling-stroke" stroke="#242C39" stroke-linecap="round" stroke-miterlimit="10" d="M133.8 168.5c-.1.7.6 1.2.9 1.8.2.4.3.8.2 1.3l-.6 1.1c-.4.6-.6 1.2-.8 1.9m4.3-8.6a2 2 0 0 0-.9-.8l-1.2-.2c-.4 0-.8.2-1.1.4a2 2 0 0 0-.8.8"/>
  <path vector-effect="non-scaling-stroke" fill="#AD5700" stroke="#242C39" stroke-linecap="round" stroke-miterlimit="10" d="M82.6 184.3c-8.5-15-9.6-41.7 3.4-52.8 9-7.7 32.4-8 39.7 1.3 10.6 13.6 10.6 35.9 3.1 51.5-9.7 20.3-35 19.8-46.2 0Z"/>
  <use xlink:href="#c"/>
  <use xlink:href="#d"/>
  <path vector-effect="non-scaling-stroke" stroke="#242C39" stroke-linecap="round" d="M107.5 249.5a74 74 0 1 1 0-148 74 74 0 0 1 0 148Z"/>
  <path vector-effect="non-scaling-stroke" fill="#6E56CF" d="M84 209c-5.2 1.6-25.5 8.7-35 12a68.5 68.5 0 0 0 58 28.5 73.4 73.4 0 0 0 60-29.5c-8-4-28.3-9-37.5-11-2 4.5-9.3 13.6-22.5 14a24.9 24.9 0 0 1-23-14Z"/>
  <path vector-effect="non-scaling-stroke" fill="#242C39" d="m49 221-.2-.5-.5.2.3.6.4-.3Zm35-12 .5-.2-.2-.4-.4.1.1.5Zm23 14v.5-.5Zm22.5-14 .1-.5h-.4l-.2.3.5.2Zm37.5 11 .4.3.3-.5-.5-.2-.2.4Zm-117.8 1.5a1468 1468 0 0 1 35-12l-.3-1a1849 1849 0 0 0-35 12l.3 1Zm34.3-12.3c2.3 5 10 14.7 23.5 14.3v-1c-13 .4-20.4-9-22.5-13.7l-1 .4Zm23.5 14.3a26.2 26.2 0 0 0 23-14.3l-1-.4a25 25 0 0 1-22 13.7v1Zm22.4-14c4.6 1 12 2.7 19.2 4.7 7.2 2 14.2 4.3 18.2 6.2l.4-.8c-4-2-11.2-4.3-18.4-6.3-7.2-2-14.6-3.8-19.2-4.8l-.2 1Zm37.2 10.2A73 73 0 0 1 107 249v1a74 74 0 0 0 60.4-29.7l-.8-.6ZM107 249a68 68 0 0 1-57.6-28.3l-.8.6A69 69 0 0 0 107 250v-1Z"/>
  <rect vector-effect="non-scaling-stroke" width="101" height="39" x="57.5" y="236.5" fill="#fff" stroke="#242C39" rx="3.5"/>
  <rect vector-effect="non-scaling-stroke" width="56" height="5" x="68" y="245" fill="#2E5FE8" rx="2"/>
  <path vector-effect="non-scaling-stroke" stroke="#242C39" d="M68.4 267H148m-79.6-8H148"/>
  <rect vector-effect="non-scaling-stroke" width="29.3" height="28.7" x="11.4" y="101.7" fill="#fff" stroke="#242C39" rx="3.5"/>

  <path vector-effect="non-scaling-stroke" fill="#A5E4D4" stroke="#242C39" stroke-linecap="round" d="M301.5 174.5a74 74 0 1 1 0-148 74 74 0 0 1 0 148Z"/>
  <path vector-effect="non-scaling-stroke" fill="#F5D90A" d="M326.5 130.5a25 25 0 0 1-2-19.5l-12.5 3.5v30l20 1.5a34 34 0 0 0-5.5-15.5Z"/>
  <path vector-effect="non-scaling-stroke" fill="#242C39" d="m324.5 111 .5.2.3-1-1 .3.2.5Zm2 19.5.4-.3-.4.3ZM332 146v.5h.5v-.5h-.5Zm-20-1.5h-.5v.5h.5v-.5Zm0-30-.1-.5-.4.1v.4h.5Zm12-3.7a25.7 25.7 0 0 0 2 20l1-.6c-4.4-7-3.2-15.6-2-19l-1-.4Zm2 20a33.8 33.8 0 0 1 5.5 15.2h1c0-2.3-1.1-8.5-5.6-15.8l-.8.6Zm6 14.7-20-1.5v1l20 1.5v-1Zm-19.5-1v-30h-1v30h1Zm-.4-29.5 12.5-3.5-.2-1-12.5 3.5.2 1Z"/>
  <path vector-effect="non-scaling-stroke" fill="#FFCEB3" stroke="#242C39" stroke-linecap="round" stroke-miterlimit="10" d="M320.6 99.5a62.2 62.2 0 0 0 3 42.3c-4.8 4.5-9.3 31.7-22.6 31.7-12.6 0-18.7-25.4-23-31.7 8.5-12.3 5.5-30.3 1.8-41.6 9.6.8 31.7.2 40.8-.7Z"/>
  <path vector-effect="non-scaling-stroke" fill="#EDAB86" d="M282 135c1.5-6.5 2.5-10.5 1.5-19 .8.8 15.2 11.3 21.5 13.5-11.5 2-18 .5-23 5.5Z"/>
  <path vector-effect="non-scaling-stroke" fill="#FFCEB3" stroke="#242C39" stroke-linecap="round" stroke-miterlimit="10" d="m331.7 102.8 1-6.2c.5-2.5-1.1-5-3.7-5.5-2.5-.5-5 1.2-5.5 3.8l-1.2 6c-.5 2.6 1.1 5 3.7 5.6 2.5.4 5.2-1.2 5.7-3.7Zm-62.6-.1-1-6a4.7 4.7 0 0 1 3.7-5.6c2.5-.5 5 1.2 5.5 3.7l1.2 6.1c.5 2.6-1.1 5-3.7 5.5a4.9 4.9 0 0 1-5.7-3.7Z"/>
  <path vector-effect="non-scaling-stroke" fill="#FFCEB3" stroke="#242C39" stroke-linecap="round" stroke-miterlimit="10" d="M276.6 113.8c-8.8-15.6-9.9-43.3 3.5-54.7 9.4-8 33.7-8.4 41.3 1.4 11 14 11 37.1 3.2 53.3-10 21.1-36.4 20.6-48 0Z"/>
  <path vector-effect="non-scaling-stroke" fill="#F5D90A" d="M322 82.6c-6.7-2-19.3-3.5-22.5-16.6.1 4.3-2.5 9-5 11-6.3 5-11.4 5.5-16.5 9s-10 8-11.5 11c3-10.5 2.9-17.9 3.4-21.6 4-30.7 41.1-34.4 55-16 9.9 13.2 4.1 21.6 7.6 33.6-5-1.5-2.5-9-10.4-10.4Z"/>
  <path vector-effect="non-scaling-stroke" fill="#242C39" d="M299.5 66h-.5l1-.1-.5.1Zm22.6 16.6-.1.5v-.5ZM332.5 93l.5-.1.2.8-.8-.2.1-.5Zm-7.6-33.5.4-.3-.4.3Zm-55 15.9h.5-.5ZM266.5 97l.4.2-.9-.3.5.1Zm28-20-.3-.4.3.4Zm5.5-11.1c1.5 6.4 5.4 10 9.7 12.1 4.3 2.2 9 3 12.5 4l-.3 1c-3.3-1-8.2-1.8-12.7-4A18.9 18.9 0 0 1 299 66.1l1-.2ZM322.2 82c2 .3 3.4 1.1 4.5 2.1 1 1 1.6 2.2 2.1 3.3l1.5 3.2a4 4 0 0 0 2.3 1.8l-.2 1a5 5 0 0 1-3-2.3c-.6-1-1-2.2-1.5-3.3-.5-1-1-2.1-2-3A7.2 7.2 0 0 0 322 83l.2-1Zm9.8 11c-1.8-6-1.2-11.3-1.4-16.4a27.9 27.9 0 0 0-6.1-17l.8-.5c5 6.7 6 12.1 6.3 17.5.2 5.3-.3 10.2 1.4 16.2l-1 .2Zm-7.5-33.3a30.6 30.6 0 0 0-30.7-10.3 29.2 29.2 0 0 0-23.4 26l-1-.2a30.1 30.1 0 0 1 24.2-26.8 31.6 31.6 0 0 1 31.7 10.7l-.8.6Zm-54.1 15.7c-.5 3.6-.4 11.1-3.4 21.6l-1-.2c3-10.5 2.9-17.8 3.4-21.6l1 .2ZM266 96.8a25 25 0 0 1 4.5-5.4c2-2 4.5-4 7.1-5.8l.6.8c-2.5 1.8-5 3.8-7 5.7a24 24 0 0 0-4.4 5.1l-.8-.4Zm11.6-11.2c2.6-1.8 5.2-2.8 8-4 2.6-1.2 5.4-2.5 8.5-5l.6.8c-3.2 2.5-6 4-8.8 5.1-2.7 1.2-5.2 2.2-7.7 4l-.6-1Zm16.5-9c1.2-1 2.4-2.6 3.3-4.5 1-1.9 1.6-4 1.5-6l1-.1a15.6 15.6 0 0 1-5.2 11.4l-.6-.8Z"/>
  <path vector-effect="non-scaling-stroke" stroke="#242C39" stroke-linecap="round" d="M301.5 174.5a74 74 0 1 1 0-148 74 74 0 0 1 0 148Z"/>
  <path vector-effect="non-scaling-stroke" fill="#40C4AA" d="m278.5 140-32.5 9.5c6.3 8.3 26.2 25 55 25a74 74 0 0 0 55.5-25L325 140l-2-.5c-5 16-14.5 32.5-22 32.5-8 0-19-18.5-22.5-32Z"/>
  <path vector-effect="non-scaling-stroke" fill="#242C39" d="m246 149.5-.1-.5-.7.2.4.6.4-.3Zm32.5-9.5.5-.1-.1-.5-.5.1.1.5Zm46.5 0 .1-.5-.1.5Zm31.5 9.5.4.3.4-.6-.7-.2-.1.5Zm-33.5-10 .1-.5-.4-.1-.2.5.5.1ZM246.1 150l32.5-9.5-.2-1-32.5 9.5.2 1Zm78.8-9.5 31.5 9.5.2-1-31.5-9.5-.2 1Zm31.2 8.7A73.4 73.4 0 0 1 301 174v1c29 0 49.3-16.8 55.9-25.2l-.8-.6ZM301 174a71.8 71.8 0 0 1-54.6-24.8l-.8.6A72.8 72.8 0 0 0 301 175v-1Zm-23-33.9a75.3 75.3 0 0 0 9.6 21.2c2.1 3.2 4.4 6 6.7 8 2.2 2 4.5 3.2 6.7 3.2v-1c-1.8 0-3.9-1-6-3a33.8 33.8 0 0 1-6.5-7.7 74.3 74.3 0 0 1-9.5-21l-1 .3Zm23 32.4c2 0 4.2-1.1 6.2-3 2.1-1.8 4.2-4.4 6.2-7.5a90 90 0 0 0 10-22.4l-.9-.2c-2.5 8-6 16-10 22-2 3.1-4 5.6-6 7.4-2 1.8-3.8 2.7-5.5 2.7v1Zm21.9-32.5 2 .5.2-1-2-.5-.2 1Z"/>
  <path vector-effect="non-scaling-stroke" fill="#fff" stroke="#242C39" d="M255 162.5h94c2 0 3.5 1.6 3.5 3.5v32c0 2-1.6 3.5-3.5 3.5h-94c-2 0-3.5-1.6-3.5-3.5v-32c0-2 1.6-3.5 3.5-3.5Z"/>
  <path vector-effect="non-scaling-stroke" fill="#2E5FE8" d="M262 173c0-1.1.9-2 2-2h52a2 2 0 0 1 2 2v1a2 2 0 0 1-2 2h-52a2 2 0 0 1-2-2v-1Z"/>
  <path vector-effect="non-scaling-stroke" stroke="#242C39" d="M262.4 193H342m-79.6-8H342"/>
  <path vector-effect="non-scaling-stroke" fill="#fff" stroke="#242C39" d="M214.9 18.7h22.3c2 0 3.5 1.6 3.5 3.5v21.7c0 2-1.5 3.5-3.5 3.5H215c-2 0-3.5-1.6-3.5-3.5V22.2c0-2 1.5-3.5 3.5-3.5Z"/>

  <path vector-effect="non-scaling-stroke" fill="#FEF2A4" stroke="#242C39" stroke-linecap="round" d="M292.5 412.5a74 74 0 1 1 0-148 74 74 0 0 1 0 148Z"/>
  <path vector-effect="non-scaling-stroke" fill="#AD5700" d="M249.5 346c-2.9 24-7 38.2-9 41.5l1.5 3.5 80.8-2c8.9 1.8 26.5 2.5 25.9-8.7-.8-14-17.6-29.9-18-48.2-.4-18.3-2.7-50.2-38.6-49.8-35.9.4-39 33.9-42.6 63.8Z"/>
  <path vector-effect="non-scaling-stroke" fill="#242C39" d="m240.5 387.5-.4-.3-.2.3.1.2.5-.2Zm9-41.4h-.5.5Zm81.2-14h-.5.5Zm18 48.2h-.5.5Zm-26 8.8.2-.5h-.1v.5ZM242 391l-.5.2.2.3h.3v-.5Zm-1-3.2a25 25 0 0 0 1.8-4.7 264.7 264.7 0 0 0 7.2-37h-1a263.6 263.6 0 0 1-7.1 36.7c-.7 2.2-1.4 3.7-1.8 4.4l.8.6Zm9-41.7c1.8-15 3.5-30.7 9.1-42.7 2.9-6 6.7-11.1 12-14.7a37.2 37.2 0 0 1 21-5.9v-1c-9 .1-16 2.3-21.6 6-5.5 3.8-9.4 9-12.3 15.1-5.7 12.3-7.4 28.2-9.2 43.1l1 .1Zm42.1-63.3c8.9 0 15.7 1.8 20.8 5 5.2 3.1 8.8 7.6 11.4 12.6a76 76 0 0 1 6 31.7h1c-.3-9.1-1-21.8-6.1-32.1a31.4 31.4 0 0 0-11.7-13 39.3 39.3 0 0 0-21.4-5.2v1Zm38.1 49.3a59 59 0 0 0 9 26c2 4 4.3 7.9 6 11.6 1.6 3.7 2.8 7.3 3 10.7l1-.1c-.2-3.6-1.5-7.3-3.2-11-1.6-3.8-3.8-7.7-6-11.7a58 58 0 0 1-8.8-25.5h-1Zm18 48.3a7 7 0 0 1-2.4 5.9 14 14 0 0 1-6.6 2.8c-5.3 1-12 .4-16.3-.5l-.2 1c4.5.9 11.2 1.5 16.7.4a15 15 0 0 0 7-3 7.9 7.9 0 0 0 2.8-6.7h-1Zm-25.4 8.2-80.8 1.9v1l80.8-2v-1Zm-80.3 2.2-1.5-3.5-1 .4 1.5 3.5 1-.4Z"/>
  <path vector-effect="non-scaling-stroke" fill="#F1A981" stroke="#242C39" stroke-linecap="round" stroke-miterlimit="10" d="M311.6 337.5a196 196 0 0 0 3 42.3c-4.8 4.5-8.9 22.8-22.2 22.8-12.5 0-19-16.5-23.5-22.8 5.8-11.4 3-29 2-41.6 9.5.8 31.6.2 40.7-.7Z"/>
  <path vector-effect="non-scaling-stroke" fill="#D68050" d="M272 371c1-4 1-15.5.5-17 .8.8 15.2 11.3 21.5 13.5-11.5 2-17-1.5-22 3.5Z"/>
  <path vector-effect="non-scaling-stroke" fill="#F1A981" stroke="#242C39" stroke-linecap="round" stroke-miterlimit="10" d="m322.7 340.8 1-6.2c.5-2.5-1.1-5-3.7-5.5-2.5-.5-5 1.2-5.5 3.8l-1.2 6c-.5 2.6 1.1 5 3.7 5.6 2.5.4 5.2-1.2 5.7-3.7Z"/>
  <path vector-effect="non-scaling-stroke" fill="#F1A981" stroke="#242C39" stroke-linecap="round" stroke-miterlimit="10" d="M267.6 351.8c-8.8-15.6-9.9-43.3 3.5-54.7 9.4-8 33.7-8.4 41.3 1.3 11 14.1 11 37.2 3.2 53.4-10 21.1-36.4 20.6-48 0Z"/>
  <path vector-effect="non-scaling-stroke" fill="#AD5700" d="M278.2 319.4c6.7-2 12.7-5.2 15.9-18.3-.1 4.2 1.3 7.3 3.6 11.5 3.2 6 10.7 7.7 14 8-5.5-2.9-9.9-11.4-10.8-17.2a32 32 0 0 0 10.3 14 61.7 61.7 0 0 1 12.8 17.1c0-8-1-17.4-1.6-21.1-4-30.7-41.5-31.5-55-16-10.8 12.5-8.5 31-6 38.7.3-1.7 1-14.2 8.8-15.5a24 24 0 0 0 16.7-11.2c-1 5.4-5.2 7.2-8.7 10Z"/>
  <path vector-effect="non-scaling-stroke" fill="#242C39" d="M294 301h.6-1 .5Zm-15.8 18.4-.3-.4.4.9-.1-.5Zm8.7-10 .5.1-1-.3.5.2Zm-16.7 11.2-.1-.5v.5Zm-8.8 15.5-.4.2 1-.1h-.6Zm6-38.6.4.3-.4-.3Zm55 15.9h-.5.5Zm1.6 21.1-.5.3 1-.3h-.5Zm-12.8-17.1.3-.4-.3.4Zm-10.3-14 .4-.1-1 .2h.6Zm10.7 17.2v.5l.3-1-.3.5Zm-14-8 .5-.2-.4.2Zm-4-11.7a26.3 26.3 0 0 1-6.5 13.1 20.5 20.5 0 0 1-9 4.9l.2 1a22 22 0 0 0 9.5-5.1c2.8-2.8 5.2-7 6.8-13.6l-1-.3Zm-15.1 18.9 2.7-2c1-.6 1.8-1.3 2.7-2 1.6-1.6 3-3.5 3.5-6.3l-1-.2a9.5 9.5 0 0 1-3.2 5.7l-2.6 2-2.7 2 .6.8Zm8-10.6A23.5 23.5 0 0 1 270 320l.2 1a24.5 24.5 0 0 0 17-11.4l-.8-.5ZM270 320c-4.2.7-6.4 4.4-7.6 8-1.2 3.5-1.4 7.1-1.6 8h1c.2-.8.4-4.3 1.5-7.7 1.2-3.5 3.2-6.7 6.9-7.3l-.2-1Zm-8.2 15.9a49 49 0 0 1-2-17.4c.5-7 2.6-14.7 7.9-20.8l-.8-.7a35.5 35.5 0 0 0-8.1 21.4 50 50 0 0 0 2 17.8l1-.3Zm5.9-38.2c6.6-7.6 19.2-11.3 30.6-9.2 11.4 2 21.5 9.8 23.5 24.9l1-.2a28.6 28.6 0 0 0-24.3-25.7c-11.7-2.1-24.7 1.6-31.6 9.5l.8.7Zm54 15.7c.6 3.7 1.7 13 1.7 21h1c0-8-1-17.4-1.6-21.2l-1 .2Zm2.6 20.8c-.8-1.5-2.7-5-5-8.4a35.8 35.8 0 0 0-7.9-9l-.6.9c2.5 1.7 5.2 5.2 7.6 8.6 2.3 3.5 4.2 6.9 5 8.4l1-.5ZM311.5 317c-5-3.5-8.3-9.3-10.2-13.8l-.9.4a32.4 32.4 0 0 0 10.5 14.2l.6-.8Zm-11.1-13.5a30 30 0 0 0 3.7 9.8 21 21 0 0 0 7.3 7.7l.5-.9c-2.6-1.3-5-4.1-7-7.3a29 29 0 0 1-3.5-9.4l-1 .1Zm11.3 16.6a22 22 0 0 1-6.8-1.8c-2.7-1.2-5.3-3-6.8-6l-.9.5c1.7 3.2 4.5 5.1 7.2 6.4 2.8 1.2 5.5 1.7 7.2 1.9v-1Zm-13.6-7.7a21.9 21.9 0 0 1-3.5-11.3h-1c-.1 4.3 1.4 7.5 3.6 11.7l1-.4Z"/>
  <path vector-effect="non-scaling-stroke" stroke="#242C39" stroke-linecap="round" d="M292.5 412.5a74 74 0 1 1 0-148 74 74 0 0 1 0 148Z"/>
  <path vector-effect="non-scaling-stroke" fill="#F5D90A" d="m268.5 378-31.5 9.5c6.3 8.3 26.2 25 55 25a74 74 0 0 0 55.5-25L316 378l-1.1-6.6a2 2 0 0 0-2.7-1.5c-3.8 1.5-10 3.7-20.2 4.1-9.5.4-15.8-1.7-19.8-3.6-1.3-.6-2.9.2-3 1.6l-.7 6Z"/>
  <path vector-effect="non-scaling-stroke" fill="#242C39" d="m237 387.5-.1-.5-.7.2.4.6.4-.3Zm31.5-9.5.1.5.4-.1v-.3l-.5-.1Zm.7-6h.5-.5Zm3-1.6.2-.4-.2.4ZM292 374v.5-.5Zm20.2-4.1-.2-.5.2.5Zm2.7 1.5h.5-.5Zm1.1 6.6h-.5v.4h.4l.1-.4Zm31.5 9.5.4.3.4-.6-.7-.2-.1.5Zm-110.4.5 31.5-9.5-.2-1-31.5 9.5.2 1Zm31.9-10 .7-6h-1l-.7 6h1Zm3-7.1c4 1.9 10.5 4 20 3.6v-1c-9.4.4-15.7-1.7-19.6-3.5l-.4.9Zm20 3.6a59.2 59.2 0 0 0 20.4-4.1l-.4-1c-3.8 1.5-10 3.7-20 4.1v1Zm22.4-3 1.1 6.6 1-.2-1.1-6.6-1 .2Zm1.5 7 31.5 9.5.2-1-31.5-9.5-.2 1Zm31.2 8.7A73.4 73.4 0 0 1 292 412v1c29 0 49.3-16.8 55.9-25.2l-.8-.6ZM292 412a71.8 71.8 0 0 1-54.6-24.8l-.8.6A72.8 72.8 0 0 0 292 413v-1Zm20.4-41.6c.9-.4 1.9.2 2 1h1a2.5 2.5 0 0 0-3.4-2l.4 1Zm-42.7 1.7c0-1 1.3-1.7 2.3-1.2l.4-1c-1.6-.7-3.5.3-3.7 2l1 .2Z"/>
  <path vector-effect="non-scaling-stroke" fill="#fff" stroke="#242C39" d="M246 403.5h94c2 0 3.5 1.6 3.5 3.5v32c0 2-1.6 3.5-3.5 3.5h-94c-2 0-3.5-1.6-3.5-3.5v-32c0-2 1.6-3.5 3.5-3.5Z"/>
  <path vector-effect="non-scaling-stroke" fill="#2E5FE8" d="M253 414c0-1.1.9-2 2-2h52a2 2 0 0 1 2 2v1a2 2 0 0 1-2 2h-52a2 2 0 0 1-2-2v-1Z"/>
  <path vector-effect="non-scaling-stroke" stroke="#242C39" d="M253.4 434H333m-79.6-8H333"/>
  <path vector-effect="non-scaling-stroke" fill="#fff" stroke="#242C39" d="M212.9 250.7h22.3c2 0 3.5 1.6 3.5 3.5v21.7c0 2-1.5 3.5-3.5 3.5H213c-2 0-3.5-1.6-3.5-3.5v-21.7c0-2 1.5-3.5 3.5-3.5Z"/>

</svg>
