<svg width="20" height="20" viewBox="0 0 10 10" fill="none" xmlns="http://www.w3.org/2000/svg">
<path fill-rule="evenodd" clip-rule="evenodd" d="M1.40454 2.24555C1.40454 2.06382 1.55186 1.9165 1.73358 1.9165H7.65633C7.83805 1.9165 7.98537 2.06382 7.98537 2.24555V8.16829C7.98537 8.71346 7.54342 9.15541 6.99824 9.15541H2.39167C1.84649 9.15541 1.40454 8.71346 1.40454 8.16829V2.24555ZM2.06262 2.57459V8.16829C2.06262 8.35001 2.20994 8.49733 2.39167 8.49733H6.99824C7.17997 8.49733 7.32729 8.35002 7.32729 8.16829V2.57459H2.06262Z" fill="#EF3826"/>
<path fill-rule="evenodd" clip-rule="evenodd" d="M3.70783 3.89087C3.88955 3.89087 4.03687 4.03819 4.03687 4.21991V6.85224C4.03687 7.03397 3.88955 7.18128 3.70783 7.18128C3.5261 7.18128 3.37878 7.03397 3.37878 6.85224V4.21991C3.37878 4.03819 3.5261 3.89087 3.70783 3.89087Z" fill="#EF3826"/>
<path fill-rule="evenodd" clip-rule="evenodd" d="M5.68207 3.89087C5.86379 3.89087 6.01111 4.03819 6.01111 4.21991V6.85224C6.01111 7.03397 5.86379 7.18128 5.68207 7.18128C5.50034 7.18128 5.35303 7.03397 5.35303 6.85224V4.21991C5.35303 4.03819 5.50034 3.89087 5.68207 3.89087Z" fill="#EF3826"/>
<path fill-rule="evenodd" clip-rule="evenodd" d="M0.0883789 2.24555C0.0883789 2.06382 0.235696 1.9165 0.41742 1.9165H8.9725C9.15422 1.9165 9.30154 2.06382 9.30154 2.24555C9.30154 2.42727 9.15422 2.57459 8.9725 2.57459H0.41742C0.235696 2.57459 0.0883789 2.42727 0.0883789 2.24555Z" fill="#EF3826"/>
<path fill-rule="evenodd" clip-rule="evenodd" d="M2.7207 1.58747C2.7207 1.04229 3.16265 0.600342 3.70783 0.600342H5.68208C6.22725 0.600342 6.6692 1.04229 6.6692 1.58747V2.24555C6.6692 2.42727 6.52188 2.57459 6.34016 2.57459H3.04974C2.86802 2.57459 2.7207 2.42727 2.7207 2.24555V1.58747ZM3.70783 1.25842C3.5261 1.25842 3.37879 1.40574 3.37879 1.58747V1.91651H6.01112V1.58747C6.01112 1.40574 5.8638 1.25842 5.68208 1.25842H3.70783Z" fill="#EF3826"/>
</svg>
