<svg width="25" height="30" viewBox="0 0 45 56" fill="none" xmlns="http://www.w3.org/2000/svg">
<path fill-rule="evenodd" clip-rule="evenodd" d="M36.9573 13.8121L34.792 50.2068C34.7594 50.7492 34.521 51.2587 34.1256 51.6314C33.7301 52.004 33.2074 52.2117 32.664 52.2121H13.3787C12.8353 52.2117 12.3125 52.004 11.9171 51.6314C11.5216 51.2587 11.2833 50.7492 11.2507 50.2068L9.08533 13.8121H5.87733L8.056 50.3961C8.13688 51.7531 8.73284 53.0279 9.72211 53.9602C10.7114 54.8925 12.0193 55.4118 13.3787 55.4121H32.664C34.0233 55.4118 35.3313 54.8925 36.3205 53.9602C37.3098 53.0279 37.9058 51.7531 37.9867 50.3961L40.1653 13.8121H36.9573ZM29.688 20.7455H26.488L25.1547 44.7455H28.3547L29.688 20.7455ZM19.5547 20.7455H16.3547L17.688 44.7455H20.888L19.5547 20.7455ZM43.1307 3.02012L1.112 10.4281C0.939255 10.4584 0.774178 10.5224 0.626225 10.6166C0.478271 10.7107 0.350349 10.8332 0.249779 10.9768C0.149212 11.1205 0.0779686 11.2826 0.0401382 11.4538C0.00231171 11.6251 -0.00135803 11.8021 0.0293312 11.9748L0.354664 13.8121L45 5.94012L44.6747 4.10012C44.6129 3.75228 44.4156 3.44317 44.1261 3.24068C43.8366 3.03818 43.4786 2.95886 43.1307 3.02012ZM26.3573 0.020119L15.8507 1.87345C15.6779 1.90372 15.5128 1.96776 15.3649 2.06192C15.2169 2.15607 15.089 2.2785 14.9884 2.42217C14.8879 2.56584 14.8166 2.72794 14.7788 2.89918C14.741 3.07043 14.7373 3.24745 14.768 3.42012L15.0933 5.25745L28.224 2.94012L27.8987 1.10279C27.8684 0.93031 27.8044 0.765488 27.7104 0.617733C27.6165 0.469977 27.4943 0.342182 27.3509 0.241645C27.2075 0.141107 27.0458 0.0697978 26.8748 0.0317882C26.7039 -0.0062215 26.5271 -0.0101865 26.3547 0.020119H26.3573Z" fill="#DC3544"/>
</svg>
