<svg width="20" height="20" viewBox="0 0 10 10" fill="none" xmlns="http://www.w3.org/2000/svg">
<g opacity="0.6">
<path fill-rule="evenodd" clip-rule="evenodd" d="M9.01103 1.12857C8.81828 0.935823 8.50577 0.935823 8.31302 1.12857L4.90056 4.54103L4.78429 5.35556L5.59853 5.23908L9.01103 1.82658C9.20378 1.63383 9.20378 1.32132 9.01103 1.12857ZM7.84768 0.663238C8.29743 0.213491 9.02662 0.213491 9.47636 0.663238C9.92611 1.11299 9.92611 1.84217 9.47636 2.29192L5.98633 5.78195C5.936 5.83228 5.87071 5.86493 5.80026 5.87501L4.44314 6.06914C4.34062 6.08381 4.23717 6.04935 4.16392 5.97612C4.09067 5.90289 4.05617 5.79945 4.07081 5.69692L4.26458 4.33944C4.27464 4.26895 4.3073 4.20362 4.35765 4.15327L7.84768 0.663238Z" fill="black"/>
<path fill-rule="evenodd" clip-rule="evenodd" d="M7.45978 1.05121C7.58828 0.922709 7.79661 0.922709 7.92511 1.05121L9.08846 2.21455C9.21695 2.34305 9.21695 2.55139 9.08846 2.67989C8.95996 2.80839 8.75162 2.80839 8.62312 2.67989L7.45978 1.51654C7.33128 1.38804 7.33128 1.17971 7.45978 1.05121Z" fill="black"/>
<path fill-rule="evenodd" clip-rule="evenodd" d="M1.80701 2.62952C1.68586 2.62952 1.58765 2.72773 1.58765 2.84888V8.3329C1.58765 8.45405 1.68586 8.55226 1.80701 8.55226H7.29103C7.41218 8.55226 7.51039 8.45405 7.51039 8.3329V5.59089C7.51039 5.40917 7.65771 5.26185 7.83943 5.26185C8.02116 5.26185 8.16848 5.40917 8.16848 5.59089V8.3329C8.16848 8.8175 7.77563 9.21035 7.29103 9.21035H1.80701C1.32241 9.21035 0.929565 8.8175 0.929565 8.3329V2.84888C0.929565 2.36428 1.32241 1.97144 1.80701 1.97144H4.54902C4.73075 1.97144 4.87806 2.11875 4.87806 2.30048C4.87806 2.4822 4.73075 2.62952 4.54902 2.62952H1.80701Z" fill="black"/>
</g>
</svg>
