<svg width="19" height="18" viewBox="0 0 19 18" fill="none" xmlns="http://www.w3.org/2000/svg">
<path d="M10.3125 8.125H13.8125V9.875H10.3125V13.375H8.5625V9.875H5.0625V8.125H8.5625V4.625H10.3125V8.125ZM9.4375 17.75C7.11686 17.75 4.89126 16.8281 3.25032 15.1872C1.60937 13.5462 0.6875 11.3206 0.6875 9C0.6875 6.67936 1.60937 4.45376 3.25032 2.81282C4.89126 1.17187 7.11686 0.25 9.4375 0.25C11.7581 0.25 13.9837 1.17187 15.6247 2.81282C17.2656 4.45376 18.1875 6.67936 18.1875 9C18.1875 11.3206 17.2656 13.5462 15.6247 15.1872C13.9837 16.8281 11.7581 17.75 9.4375 17.75ZM9.4375 16C11.294 16 13.0745 15.2625 14.3872 13.9497C15.7 12.637 16.4375 10.8565 16.4375 9C16.4375 7.14348 15.7 5.36301 14.3872 4.05025C13.0745 2.7375 11.294 2 9.4375 2C7.58098 2 5.80051 2.7375 4.48775 4.05025C3.175 5.36301 2.4375 7.14348 2.4375 9C2.4375 10.8565 3.175 12.637 4.48775 13.9497C5.80051 15.2625 7.58098 16 9.4375 16V16Z" fill="white"/>
</svg>
