<svg width="20" height="20" viewBox="0 0 9 6" fill="none" xmlns="http://www.w3.org/2000/svg">
<path d="M4.72426 0.254883C7.42055 0.254883 8.66531 2.9208 8.66531 2.9208C8.66531 2.9208 7.42055 5.58672 4.72426 5.58672C2.02797 5.58672 0.783203 2.9208 0.783203 2.9208C0.783203 2.9208 2.02797 0.254883 4.72426 0.254883Z" stroke="black" stroke-width="0.527643" stroke-linejoin="round"/>
<path d="M5.89957 2.92093C5.90318 3.0939 5.8745 3.2659 5.81519 3.42684C5.75589 3.58777 5.66717 3.73439 5.55424 3.85808C5.4413 3.98178 5.30644 4.08007 5.15755 4.14717C5.00867 4.21427 4.84877 4.24884 4.68724 4.24884C4.52571 4.24884 4.36582 4.21427 4.21693 4.14717C4.06805 4.08007 3.93318 3.98178 3.82025 3.85808C3.70732 3.73439 3.61859 3.58777 3.55929 3.42684C3.49999 3.2659 3.4713 3.0939 3.47491 2.92093C3.47491 2.57645 3.60267 2.24608 3.83008 2.0025C4.0575 1.75891 4.36593 1.62207 4.68754 1.62207C5.00915 1.62207 5.31759 1.75891 5.54501 2.0025C5.77242 2.24608 5.90018 2.57645 5.90018 2.92093H5.89957Z" stroke="black" stroke-width="0.527643" stroke-linejoin="round"/>
</svg>
