<svg
                  xmlns="http://www.w3.org/2000/svg"
                  width="55"
                  height="55"
                  viewBox="0 0 55 55"
                >
                  <g>
                    <path
                      d="M54.523 40.0167L48.8855 37.198L45.2976 27.8651C45.2553 27.7548 45.1908 27.6543 45.108 27.5701C45.0252 27.4858 44.9259 27.4195 44.8163 27.3753L22.5542 18.4765C22.3986 18.4145 22.2282 18.3994 22.0641 18.433C21.8999 18.4666 21.7492 18.5474 21.6304 18.6655L18.6613 21.6347C18.5447 21.7536 18.4652 21.9038 18.4324 22.067C18.3996 22.2303 18.4149 22.3995 18.4765 22.5542L27.3753 44.8163C27.4195 44.9259 27.4858 45.0252 27.5701 45.108C27.6544 45.1908 27.7548 45.2553 27.8652 45.2976L37.198 48.8855L40.0167 54.523C40.0761 54.6473 40.1644 54.7555 40.2744 54.8385C40.3843 54.9215 40.5126 54.9769 40.6484 54.9999C40.6941 55.0042 40.7401 55.0042 40.7859 54.9999C41.0134 54.999 41.2313 54.9078 41.3917 54.7464L54.7464 41.3917C54.8447 41.2969 54.919 41.18 54.9631 41.0507C55.0071 40.9214 55.0198 40.7835 54.9999 40.6483C54.9769 40.5125 54.9215 40.3843 54.8385 40.2744C54.7555 40.1644 54.6473 40.0761 54.523 40.0167ZM20.2769 22.4425L20.7538 21.9698L31.8355 33.0515C31.1052 34.0863 30.7897 35.3576 30.9516 36.6138C31.1134 37.87 31.7408 39.0198 32.7096 39.8358C33.6784 40.6517 34.918 41.0744 36.1835 41.0203C37.449 40.9663 38.6481 40.4393 39.5437 39.5437C40.4393 38.648 40.9663 37.4489 41.0204 36.1835C41.0744 34.918 40.6517 33.6783 39.8358 32.7096C39.0198 31.7408 37.87 31.1134 36.6138 30.9516C35.3576 30.7897 34.0864 31.1051 33.0515 31.8355L21.9698 20.7538L22.4425 20.2769L43.8281 28.8319L47.2011 37.6062L37.6062 47.2011L28.832 43.828L20.2769 22.4425ZM35.9648 32.6261C36.7371 32.6272 37.4852 32.8961 38.0815 33.387C38.6779 33.8778 39.0856 34.5602 39.2352 35.3179C39.3849 36.0756 39.2672 36.8618 38.9022 37.5425C38.5372 38.2232 37.9475 38.7562 37.2335 39.0509C36.5196 39.3456 35.7256 39.3836 34.9868 39.1585C34.2479 38.9334 33.61 38.4591 33.1816 37.8164C32.7533 37.1737 32.561 36.4024 32.6376 35.6338C32.7141 34.8653 33.0548 34.147 33.6015 33.6015C34.2289 32.9761 35.0789 32.6252 35.9648 32.6261ZM41.0222 52.6882L38.8738 48.3913L48.3827 38.8823L52.6796 41.0308L41.0222 52.6882Z"
                    />
                    <path
                      d="M16.4356 45.9765C16.2712 45.8212 16.0537 45.7346 15.8276 45.7346C15.6014 45.7346 15.3839 45.8212 15.2196 45.9765L14.1281 47.0679C11.2156 43.115 9.6089 38.3519 9.53188 33.4425C9.45485 28.5331 10.9114 23.7219 13.6985 19.6796C14.5335 20.1391 15.4949 20.3156 16.4386 20.1826C17.3824 20.0497 18.2577 19.6145 18.9333 18.9423C19.6089 18.2701 20.0485 17.397 20.1862 16.4539C20.3238 15.5108 20.1522 14.5485 19.6969 13.7112C23.7392 10.9242 28.5504 9.46764 33.4598 9.54466C38.3692 9.62168 43.1323 11.2284 47.0852 14.1409L45.9766 15.2194C45.8168 15.3806 45.7272 15.5984 45.7274 15.8253C45.7267 15.9384 45.7484 16.0505 45.7912 16.1552C45.8339 16.2599 45.8969 16.3552 45.9766 16.4355L49.7664 20.1952C49.9274 20.3553 50.1452 20.4451 50.3723 20.4451C50.5993 20.4451 50.8171 20.3553 50.9781 20.1952L54.7465 16.4269C54.8264 16.347 54.8898 16.2523 54.933 16.1479C54.9763 16.0436 54.9986 15.9318 54.9986 15.8189C54.9986 15.7059 54.9763 15.5941 54.933 15.4898C54.8898 15.3854 54.8264 15.2907 54.7465 15.2108L50.9781 11.4425C50.8171 11.2824 50.5993 11.1926 50.3723 11.1926C50.1452 11.1926 49.9274 11.2824 49.7664 11.4425L48.3098 12.8905C44.7198 10.1891 40.4754 8.49181 36.0126 7.97303C31.5497 7.45425 27.0292 8.13266 22.9153 9.93858L27.8695 4.99717C28.4313 5.26559 29.07 5.32635 29.6722 5.16867C30.2745 5.01099 30.8015 4.64507 31.1596 4.13582C31.5178 3.62657 31.684 3.00692 31.6287 2.3868C31.5735 1.76667 31.3004 1.18616 30.8578 0.748258C30.4153 0.310354 29.8319 0.0433625 29.2112 -0.00534941C28.5906 -0.0540613 27.9727 0.118655 27.4673 0.482159C26.9618 0.845663 26.6015 1.37645 26.4501 1.98037C26.2988 2.58428 26.3663 3.22227 26.6406 3.78116L18.2789 12.1558C17.4299 11.5863 16.4095 11.3292 15.3921 11.4285C14.3746 11.5278 13.4231 11.9772 12.7002 12.7001C11.9774 13.423 11.5279 14.3745 11.4286 15.3919C11.3293 16.4094 11.5864 17.4298 12.1559 18.2788L3.78127 26.6405C3.22019 26.3671 2.58036 26.3015 1.97547 26.4553C1.37057 26.6091 0.839792 26.9724 0.477444 27.4806C0.115096 27.9888 -0.0553512 28.6089 -0.00361026 29.2309C0.0481306 29.8529 0.318709 30.4364 0.760043 30.8778C1.20138 31.3191 1.78489 31.5897 2.40688 31.6414C3.02887 31.6932 3.64907 31.5227 4.15725 31.1604C4.66544 30.798 5.02871 30.2672 5.18252 29.6624C5.33632 29.0575 5.27068 28.4176 4.99728 27.8566L9.95158 22.9151C8.14385 27.028 7.46331 31.5479 7.97982 36.0107C8.49632 40.4735 10.1913 44.7185 12.8906 48.3097L11.4383 49.7663C11.2782 49.9273 11.1884 50.1451 11.1884 50.3722C11.1884 50.5992 11.2782 50.817 11.4383 50.978L15.2067 54.7464C15.3671 54.9078 15.585 54.999 15.8125 54.9999C15.9259 55 16.0382 54.9776 16.1429 54.9341C16.2477 54.8906 16.3427 54.8268 16.4227 54.7464L20.1953 50.978C20.3554 50.817 20.4452 50.5992 20.4452 50.3722C20.4452 50.1451 20.3554 49.9273 20.1953 49.7663L16.4356 45.9765ZM50.3809 13.2558L52.9332 15.8081L50.3809 18.3605L47.8285 15.8081L50.3809 13.2558ZM28.3594 1.98936C28.4871 1.86062 28.6502 1.77271 28.8279 1.73679C29.0056 1.70087 29.19 1.71856 29.3577 1.78762C29.5254 1.85667 29.6688 1.97397 29.7697 2.12464C29.8706 2.27531 29.9244 2.45256 29.9244 2.63389C29.9244 2.81523 29.8706 2.99247 29.7697 3.14314C29.6688 3.29381 29.5254 3.41112 29.3577 3.48017C29.19 3.54922 29.0056 3.56691 28.8279 3.53099C28.6502 3.49507 28.4871 3.40717 28.3594 3.27842C28.2747 3.19382 28.2075 3.09335 28.1616 2.98275C28.1158 2.87216 28.0922 2.75361 28.0922 2.63389C28.0922 2.51417 28.1158 2.39562 28.1616 2.28503C28.2075 2.17443 28.2747 2.07396 28.3594 1.98936ZM13.9219 13.9218C14.1714 13.671 14.4681 13.4721 14.7947 13.3363C15.1214 13.2005 15.4717 13.1306 15.8254 13.1306C16.1792 13.1306 16.5294 13.2005 16.8561 13.3363C17.1828 13.4721 17.4794 13.671 17.7289 13.9218C18.1061 14.2984 18.3632 14.7784 18.4675 15.3012C18.5718 15.8239 18.5187 16.3658 18.3149 16.8584C18.1111 17.3509 17.7658 17.7719 17.3226 18.0682C16.8795 18.3644 16.3584 18.5225 15.8254 18.5225C15.2924 18.5225 14.7713 18.3644 14.3282 18.0682C13.885 17.7719 13.5397 17.3509 13.3359 16.8584C13.1321 16.3658 13.079 15.8239 13.1834 15.3012C13.2877 14.7784 13.5447 14.2984 13.9219 13.9218ZM3.28283 29.6483C3.10739 29.7947 2.88357 29.8701 2.65535 29.8598C2.42714 29.8494 2.21103 29.7542 2.0495 29.5926C1.88796 29.4311 1.79267 29.215 1.78236 28.9868C1.77205 28.7585 1.84746 28.5347 1.99377 28.3593C2.16573 28.1903 2.39719 28.0956 2.6383 28.0956C2.87941 28.0956 3.11087 28.1903 3.28283 28.3593C3.36754 28.4439 3.43474 28.5444 3.48059 28.655C3.52644 28.7655 3.55004 28.8841 3.55004 29.0038C3.55004 29.1235 3.52644 29.2421 3.48059 29.3527C3.43474 29.4633 3.36754 29.5637 3.28283 29.6483ZM15.8254 52.9073L13.2731 50.355L15.8254 47.8026L18.3778 50.355L15.8254 52.9073Z"
                    />
                  </g>
                </svg>