<svg
                  xmlns="http://www.w3.org/2000/svg"
                  width="55"
                  height="55"
                  viewBox="0 0 55 55"
                >
                  <path
                    d="M52.8537 3.13013H9.39024C8.22764 3.13013 7.2439 4.06915 7.2439 5.27647V10.374H2.14634C0.939024 10.374 0 11.3131 0 12.5204V49.7236C0 50.8862 0.939024 51.87 2.14634 51.87H45.6098C46.7724 51.87 47.7561 50.9309 47.7561 49.7236V44.6261H52.8537C54.0163 44.6261 55 43.687 55 42.4797V5.27647C55 4.06915 54.061 3.13013 52.8537 3.13013ZM9.39024 4.91874H52.8537C53.0325 4.91874 53.2114 5.05289 53.2114 5.27647V11.4472H9.03252V5.27647C9.03252 5.05289 9.21138 4.91874 9.39024 4.91874ZM2.14634 12.1626H7.2439V18.6911H1.78862V12.5204C1.78862 12.3415 1.92276 12.1626 2.14634 12.1626ZM45.9675 49.7236C45.9675 49.9025 45.8333 50.0813 45.6098 50.0813H2.14634C1.96748 50.0813 1.78862 49.9472 1.78862 49.7236V20.4797H7.2439V42.4797C7.2439 43.6423 8.18293 44.6261 9.39024 44.6261H45.9675V49.7236ZM52.8537 42.8374H9.39024C9.21138 42.8374 9.03252 42.7033 9.03252 42.4797V13.2358H53.2114V42.4797C53.2114 42.6586 53.0772 42.8374 52.8537 42.8374Z"
                  />
                  <path
                    d="M16.5895 8.89848H13.2805C12.7887 8.89848 12.3862 8.49604 12.3862 8.00417C12.3862 7.5123 12.7887 7.10986 13.2805 7.10986H16.5895C17.0814 7.10986 17.4838 7.5123 17.4838 8.00417C17.4838 8.49604 17.0814 8.89848 16.5895 8.89848ZM24.1464 8.89848H20.8374C20.3456 8.89848 19.9431 8.49604 19.9431 8.00417C19.9431 7.5123 20.3456 7.10986 20.8374 7.10986H24.1464C24.6383 7.10986 25.0407 7.5123 25.0407 8.00417C25.0407 8.49604 24.6383 8.89848 24.1464 8.89848Z"
                  />
                  <path
                    d="M17.3943 28.1262L25.8902 32.5083V30.8091L19.3618 27.5449L25.8902 24.2806V22.5815L17.3943 26.9189V28.1262ZM27.7683 33.0449H29.378L34.3862 20.0774H32.7317L27.7683 33.0449ZM36.2195 22.5815V24.2806L42.7927 27.5449L36.2195 30.8091V32.5083L44.7154 28.1262V26.9189L36.2195 22.5815Z"
                  />
                </svg>