 <svg
                  xmlns="http://www.w3.org/2000/svg"
                  width="55"
                  height="55"
                  viewBox="0 0 55 55"
                >
                  <g>
                    <path
                      d="M49.1992 0H5.80078C4.26284 0.00170598 2.78838 0.613406 1.70089 1.70089C0.613406 2.78838 0.00170598 4.26284 0 5.80078L0 49.1992C0.00170598 50.7372 0.613406 52.2116 1.70089 53.2991C2.78838 54.3866 4.26284 54.9983 5.80078 55H49.1992C50.7372 54.9983 52.2116 54.3866 53.2991 53.2991C54.3866 52.2116 54.9983 50.7372 55 49.1992V5.80078C54.9983 4.26284 54.3866 2.78838 53.2991 1.70089C52.2116 0.613406 50.7372 0.00170598 49.1992 0ZM53.7109 49.1992C53.7096 50.3954 53.2338 51.5422 52.388 52.388C51.5422 53.2338 50.3954 53.7096 49.1992 53.7109H5.80078C4.60462 53.7096 3.45784 53.2338 2.61202 52.388C1.76621 51.5422 1.29043 50.3954 1.28906 49.1992V12.8906H53.7109V49.1992ZM53.7109 11.6016H1.28906V5.80078C1.29043 4.60462 1.76621 3.45784 2.61202 2.61202C3.45784 1.76621 4.60462 1.29043 5.80078 1.28906H49.1992C50.3954 1.29043 51.5422 1.76621 52.388 2.61202C53.2338 3.45784 53.7096 4.60462 53.7109 5.80078V11.6016Z"
                    />
                    <path
                      d="M6.66016 4.72656C6.27773 4.72656 5.90389 4.83997 5.58591 5.05243C5.26793 5.2649 5.0201 5.56688 4.87375 5.9202C4.7274 6.27352 4.68911 6.6623 4.76372 7.03738C4.83832 7.41246 5.02248 7.757 5.2929 8.02741C5.56332 8.29783 5.90785 8.48199 6.28293 8.5566C6.65801 8.6312 7.04679 8.59291 7.40011 8.44656C7.75343 8.30021 8.05542 8.05238 8.26788 7.7344C8.48035 7.41643 8.59375 7.04258 8.59375 6.66016C8.59318 6.14751 8.38928 5.65602 8.02679 5.29353C7.66429 4.93103 7.1728 4.72713 6.66016 4.72656ZM6.66016 7.30469C6.53268 7.30469 6.40807 7.26689 6.30208 7.19606C6.19608 7.12524 6.11347 7.02458 6.06469 6.90681C6.0159 6.78903 6.00314 6.65944 6.02801 6.53441C6.05288 6.40939 6.11427 6.29454 6.2044 6.2044C6.29454 6.11426 6.40939 6.05288 6.53442 6.02801C6.65944 6.00314 6.78904 6.0159 6.90681 6.06469C7.02458 6.11347 7.12524 6.19608 7.19607 6.30207C7.26689 6.40807 7.30469 6.53268 7.30469 6.66016C7.30469 6.8311 7.23678 6.99504 7.11591 7.11591C6.99504 7.23678 6.8311 7.30469 6.66016 7.30469ZM20.4102 4.72656C20.0277 4.72656 19.6539 4.83997 19.3359 5.05243C19.0179 5.2649 18.7701 5.56688 18.6237 5.9202C18.4774 6.27352 18.4391 6.6623 18.5137 7.03738C18.5883 7.41246 18.7725 7.757 19.0429 8.02741C19.3133 8.29783 19.6579 8.48199 20.0329 8.5566C20.408 8.6312 20.7968 8.59291 21.1501 8.44656C21.5034 8.30021 21.8054 8.05238 22.0179 7.7344C22.2303 7.41643 22.3438 7.04258 22.3438 6.66016C22.3432 6.14751 22.1393 5.65602 21.7768 5.29353C21.4143 4.93103 20.9228 4.72713 20.4102 4.72656ZM20.4102 7.30469C20.2827 7.30469 20.1581 7.26689 20.0521 7.19606C19.9461 7.12524 19.8635 7.02458 19.8147 6.90681C19.7659 6.78903 19.7531 6.65944 19.778 6.53441C19.8029 6.40939 19.8643 6.29454 19.9544 6.2044C20.0445 6.11426 20.1594 6.05288 20.2844 6.02801C20.4094 6.00314 20.539 6.0159 20.6568 6.06469C20.7746 6.11347 20.8752 6.19608 20.9461 6.30207C21.0169 6.40807 21.0547 6.53268 21.0547 6.66016C21.0547 6.8311 20.9868 6.99504 20.8659 7.11591C20.745 7.23678 20.5811 7.30469 20.4102 7.30469ZM13.5352 4.72656C13.1527 4.72656 12.7789 4.83997 12.4609 5.05243C12.1429 5.2649 11.8951 5.56688 11.7487 5.9202C11.6024 6.27352 11.5641 6.6623 11.6387 7.03738C11.7133 7.41246 11.8975 7.757 12.1679 8.02741C12.4383 8.29783 12.7829 8.48199 13.1579 8.5566C13.533 8.6312 13.9218 8.59291 14.2751 8.44656C14.6284 8.30021 14.9304 8.05238 15.1429 7.7344C15.3553 7.41643 15.4688 7.04258 15.4688 6.66016C15.4682 6.14751 15.2643 5.65602 14.9018 5.29353C14.5393 4.93103 14.0478 4.72713 13.5352 4.72656ZM13.5352 7.30469C13.4077 7.30469 13.2831 7.26689 13.1771 7.19606C13.0711 7.12524 12.9885 7.02458 12.9397 6.90681C12.8909 6.78903 12.8781 6.65944 12.903 6.53441C12.9279 6.40939 12.9893 6.29454 13.0794 6.2044C13.1695 6.11426 13.2844 6.05288 13.4094 6.02801C13.5344 6.00314 13.664 6.0159 13.7818 6.06469C13.8996 6.11347 14.0002 6.19608 14.0711 6.30207C14.1419 6.40807 14.1797 6.53268 14.1797 6.66016C14.1797 6.8311 14.1118 6.99504 13.9909 7.11591C13.87 7.23678 13.7061 7.30469 13.5352 7.30469ZM47.9102 4.72656H41.0352C40.5223 4.72656 40.0305 4.93028 39.6679 5.2929C39.3053 5.65552 39.1016 6.14734 39.1016 6.66016C39.1016 7.17298 39.3053 7.66479 39.6679 8.02741C40.0305 8.39003 40.5223 8.59375 41.0352 8.59375H47.9102C48.423 8.59375 48.9148 8.39003 49.2774 8.02741C49.64 7.66479 49.8438 7.17298 49.8438 6.66016C49.8438 6.14734 49.64 5.65552 49.2774 5.2929C48.9148 4.93028 48.423 4.72656 47.9102 4.72656ZM47.9102 7.30469H41.0352C40.8642 7.30469 40.7003 7.23678 40.5794 7.11591C40.4585 6.99504 40.3906 6.8311 40.3906 6.66016C40.3906 6.48922 40.4585 6.32528 40.5794 6.2044C40.7003 6.08353 40.8642 6.01562 41.0352 6.01562H47.9102C48.0811 6.01562 48.245 6.08353 48.3659 6.2044C48.4868 6.32528 48.5547 6.48922 48.5547 6.66016C48.5547 6.8311 48.4868 6.99504 48.3659 7.11591C48.245 7.23678 48.0811 7.30469 47.9102 7.30469ZM18.8405 24.8566C19.196 24.4901 19.3948 23.9996 19.3948 23.4891C19.3948 22.9785 19.196 22.4881 18.8405 22.1216C18.4779 21.759 17.9861 21.5553 17.4732 21.5553C16.9604 21.5553 16.4686 21.759 16.106 22.1216C15.7434 22.4842 15.5396 22.976 15.5396 23.4889C15.5396 24.0017 15.7434 24.4935 16.106 24.8561C16.4723 25.2116 16.9627 25.4105 17.4732 25.4106C17.9836 25.4106 18.4741 25.2119 18.8405 24.8566ZM17.0156 23.0334C17.0755 22.9735 17.1465 22.926 17.2247 22.8936C17.3029 22.8612 17.3867 22.8445 17.4714 22.8445C17.556 22.8445 17.6398 22.8611 17.7181 22.8935C17.7963 22.9259 17.8673 22.9733 17.9272 23.0332C17.9871 23.093 18.0346 23.1641 18.067 23.2423C18.0994 23.3205 18.1161 23.4043 18.1161 23.4889C18.1161 23.5736 18.0995 23.6574 18.0671 23.7356C18.0347 23.8138 17.9873 23.8849 17.9274 23.9448C17.8046 24.062 17.6413 24.1274 17.4715 24.1274C17.3017 24.1274 17.1385 24.062 17.0156 23.9448C16.8948 23.8239 16.8269 23.66 16.8269 23.4891C16.8269 23.3182 16.8948 23.1543 17.0156 23.0334Z"
                    />
                    <path
                      d="M18.5328 34.5749L12.6779 40.4294C12.0792 41.0298 11.7206 41.8282 11.6694 42.6745L11.4615 48.1397C11.4532 48.4065 11.4999 48.6721 11.5987 48.9201C11.6974 49.168 11.8461 49.393 12.0355 49.5811C12.2249 49.7691 12.451 49.9162 12.6997 50.0131C12.9483 50.1101 13.2143 50.1549 13.481 50.1446L18.8564 49.9006C19.7508 49.8842 20.6038 49.5207 21.2351 48.887L27.0398 43.0823L33.8809 49.9229C34.4872 50.5235 35.3061 50.8603 36.1595 50.8603C37.0129 50.8603 37.8318 50.5235 38.4381 49.9229L43.9072 44.4539C44.5077 43.8475 44.8446 43.0286 44.8446 42.1752C44.8446 41.3218 44.5077 40.5029 43.9072 39.8966L37.0666 33.0555L42.9687 27.1525C44.097 26.0243 44.7308 24.4941 44.7308 22.8986C44.7308 21.3031 44.097 19.7729 42.9687 18.6447C41.8405 17.5165 40.3104 16.8827 38.7148 16.8827C37.1193 16.8827 35.5891 17.5165 34.4609 18.6447L28.5592 24.5486L21.1191 17.1086C20.5128 16.508 19.6939 16.1711 18.8405 16.1711C17.9871 16.1711 17.1682 16.508 16.5619 17.1086L11.0928 22.5776C10.4923 23.184 10.1554 24.0029 10.1554 24.8562C10.1554 25.7096 10.4923 26.5285 11.0928 27.1349L18.5328 34.5749ZM13.4226 48.8556C13.3335 48.8596 13.2447 48.845 13.1615 48.8129C13.0784 48.7808 13.0028 48.7318 12.9396 48.6691C12.8764 48.6063 12.8269 48.531 12.7942 48.4481C12.7615 48.3652 12.7463 48.2765 12.7497 48.1874L12.7849 47.2576C12.9928 47.2467 13.2008 47.2793 13.3953 47.3534C13.5899 47.4275 13.7669 47.5414 13.9149 47.6878C14.063 47.8342 14.1788 48.01 14.255 48.2037C14.3312 48.3975 14.3662 48.605 14.3576 48.813L13.4226 48.8556ZM18.8143 48.6111L15.6436 48.755C15.6441 48.3871 15.5716 48.0227 15.4302 47.683C15.2889 47.3433 15.0815 47.035 14.8202 46.776C14.5589 46.517 14.2487 46.3124 13.9078 46.1741C13.5668 46.0358 13.2018 45.9665 12.8339 45.9702L12.9568 42.739C12.9598 42.693 12.9723 42.6488 12.9783 42.6028L15.0296 42.9345L15.4421 45.6334C15.4629 45.7691 15.5264 45.8946 15.6235 45.9917C15.7205 46.0888 15.8461 46.1523 15.9818 46.173L18.6845 46.586L19.0244 48.587C18.9544 48.5978 18.886 48.6111 18.8143 48.6124V48.6111ZM16.2826 42.6023L34.0068 24.8739L36.7413 27.6084L19.0158 45.3321L16.6448 44.9699L16.2826 42.6023ZM42.9958 40.808C43.3561 41.1717 43.5582 41.663 43.5582 42.175C43.5582 42.687 43.3561 43.1783 42.9958 43.5421L37.5263 49.0116C37.1626 49.3719 36.6713 49.574 36.1593 49.574C35.6473 49.574 35.156 49.3719 34.7922 49.0116L34.6401 48.8595L36.0074 47.4922C36.0689 47.4327 36.118 47.3616 36.1518 47.283C36.1856 47.2043 36.2034 47.1198 36.2041 47.0342C36.2049 46.9486 36.1886 46.8637 36.1561 46.7845C36.1237 46.7053 36.0759 46.6333 36.0154 46.5728C35.9548 46.5123 35.8829 46.4645 35.8037 46.4321C35.7245 46.3996 35.6396 46.3833 35.554 46.3841C35.4684 46.3848 35.3839 46.4026 35.3052 46.4364C35.2266 46.4702 35.1555 46.5193 35.096 46.5808L33.7305 47.9481L30.6917 44.9093L32.059 43.5421C32.1205 43.4826 32.1696 43.4115 32.2034 43.3329C32.2372 43.2542 32.255 43.1696 32.2557 43.0841C32.2565 42.9985 32.2402 42.9136 32.2077 42.8344C32.1753 42.7552 32.1275 42.6832 32.067 42.6227C32.0065 42.5622 31.9345 42.5143 31.8553 42.4819C31.7761 42.4495 31.6912 42.4332 31.6056 42.434C31.52 42.4347 31.4355 42.4525 31.3568 42.4863C31.2782 42.52 31.2071 42.5691 31.1476 42.6307L29.7773 44.0001L27.9512 42.1709L36.1552 33.9669L42.9958 40.808ZM20.3242 47.9756C20.298 48.0014 20.2671 48.0186 20.2383 48.0448L19.9319 46.2401L37.6526 28.5198L38.7148 29.5832L20.3242 47.9756ZM42.0582 19.5565C42.9431 20.4437 43.4401 21.6457 43.4401 22.8988C43.4401 24.1519 42.9431 25.3539 42.0582 26.2411L35.3736 19.5569C36.2607 18.6718 37.4627 18.1747 38.7158 18.1747C39.969 18.1746 41.171 18.6715 42.0582 19.5565ZM34.4609 20.4683L41.1469 27.1525L39.6275 28.6719L32.9428 21.9872L34.4609 20.4683ZM32.0302 22.8986L33.0941 23.9625L15.3759 41.6858L13.548 41.3906C13.5631 41.3747 13.5743 41.3562 13.591 41.3408L32.0302 22.8986ZM12.0046 23.4894L17.4737 18.0204C17.8374 17.6599 18.3287 17.4578 18.8407 17.4578C19.3527 17.4578 19.8441 17.6599 20.2078 18.0204L27.6478 25.46L21.2373 31.8705C21.2083 31.8049 21.1683 31.7448 21.1191 31.6926C20.9983 31.5717 20.8344 31.5039 20.6635 31.5039C20.4925 31.5039 20.3286 31.5717 20.2078 31.6926L18.8409 33.0598L16.106 30.3253L17.4737 28.958C17.5945 28.8371 17.6624 28.6732 17.6624 28.5022C17.6623 28.3313 17.5944 28.1673 17.4735 28.0465C17.3525 27.9256 17.1886 27.8577 17.0176 27.8578C16.8467 27.8578 16.6827 27.9258 16.5619 28.0467L15.1946 29.4139L12.0046 26.2235C11.6442 25.8598 11.442 25.3685 11.442 24.8565C11.442 24.3444 11.6442 23.8531 12.0046 23.4894Z"
                    />
                  </g>
                </svg>